<?xml version="1.0"?>
<svg width="500" height="500" xmlns:rdf="http://www.w3.org/1999/02/22-rdf-syntax-ns#" xmlns="http://www.w3.org/2000/svg" xmlns:cc="http://web.resource.org/cc/" xmlns:xlink="http://www.w3.org/1999/xlink" xmlns:dc="http://purl.org/dc/elements/1.1/" xmlns:svg="http://www.w3.org/2000/svg" id="Layer_1" style="enable-background:new 0 0 194.007 169.412" xml:space="preserve" viewBox="0 0 194.007 169.412" version="1.1" y="0px" x="0px">
<g id="g4698" transform="matrix(.20224 0 0 .20224 127.3 745.63)">
	<path id="path4690" d="m158.1-3522.1c1.951-3.641 4.264-7.021 6.751-10.314 6.398-8.344 14.491-15.124 22.43-21.933 10.768-9.146 21.913-17.837 32.73-26.935 9.561-8.025 18.755-16.457 27.824-25.033 6.311-6.094 12.729-12.091 18.847-18.398 4.119-4.095 7.813-8.576 11.507-13.057 2.839-3.216 5.302-6.712 7.668-10.276 1.825-3.1 4.143-5.833 6.422-8.595 1.907-2.434 3.998-4.703 5.727-7.272 1.511-2.028 2.593-4.307 3.622-6.596 11.039-10.701 20.552-24.473 25.009-10.585 1.183 4.491 2.023 9.069 2.69 13.656 1 6.789 0.444 13.521-0.695 20.242-1.787 9.32-5.756 17.934-9.889 26.404-4.945 9.793-10.252 19.393-15.462 29.05-4.896 8.644-9.378 17.509-13.743 26.433-2.723 5.273-5.133 10.826-9.015 15.385-20.658 15.327-22.073 23.565-29.407 5.099-3.723-9.967-7.325-19.972-11.324-29.833-4.602-11.212-9.638-22.241-14.926-33.155-3.733-7.823-8.233-15.211-12.695-22.618-2.695-4.462-5.302-9.04-6.5-14.148-0.111-1.487-0.28-3.728 1.101-4.81 16.756-13.047 15.24-14.158 27.278-18.262 7.625-2.414 15.38-4.375 23.164-6.2 10.459-2.376 21.025-4.172 31.639-5.698 5.746-0.811 11.497-1.564 17.249-2.318l-18.316 16.978c-5.746 0.763-11.497 1.516-17.229 2.356-10.647 1.623-21.247 3.535-31.716 6.075-7.847 1.941-15.689 4.008-23.294 6.77-0.913 0.377-1.84 0.705-2.729 1.13-0.729 0.338-2.752 1.661-2.125 1.159 6.273-4.955 12.709-9.687 19.064-14.525-0.531 0.29-1.796 0.879-2.154 1.497-0.203 0.367-0.174 0.821-0.261 1.227 0.391 4.974 3.173 9.387 5.505 13.675 4.365 7.581 8.721 15.172 12.357 23.14 5.157 11.029 10.165 22.126 14.897 33.348 4.047 9.764 7.784 19.653 11.917 29.379 0.753 1.7 1.623 3.824 2.598 5.447 0.155 0.271 1.174 1.97 1.912 2.105 0.232 0.039 0.831-0.435 0.647-0.29-6.519 4.983-13.101 9.889-19.648 14.844 5.032-3.477 7.161-9.832 10.155-14.902 4.471-8.982 8.962-17.954 13.946-26.674 5.206-9.6 10.474-19.18 15.433-28.915 4.056-8.229 8.074-16.544 9.938-25.603 1.178-6.422 1.849-12.854 0.859-19.364-0.618-4.414-1.487-8.808-2.709-13.096-0.188-0.579-0.488-2.125-1.048-2.588-0.212-0.174-0.029 0.975 0.193 0.811 6.896-5.032 13.55-10.373 20.325-15.568-2.028 1.623-2.226 4.607-3.839 6.587-1.801 2.569-3.448 5.215-5.708 7.436-2.12 2.878-4.732 5.351-6.596 8.421-2.318 3.709-4.737 7.369-7.678 10.624-3.718 4.607-7.494 9.185-11.676 13.395-6.181 6.5-12.825 12.526-19.267 18.765-9.175 8.663-18.465 17.21-28.123 25.342-10.72 9.117-21.855 17.731-32.575 26.839-7.688 6.577-15.587 13.057-21.908 21.015-2.294 3.052-4.824 6.055-6.215 9.648l-22.94 13.6z" fill="#010101"/>
	<path id="path4661" d="m-120.8-3611.6c-37.136 0.84-74.369 16.679-98.09 45.468-41.61 47.129-56.191 113.22-49.515 174.87 5.63 52.016 27.532 101.01 53.639 145.67 46.393 77.416 111.08 141.48 177.28 202 12.806 0.251 19.045-16.65 12.526-26.443-0.763-1.951-4.394-3.293-1.275-4.838 11-12.13 14.496-28.915 21.232-43.392 43.034-51.108 83.157-105.22 113.81-164.71 29.316-58.67 62.958-116.4 75.919-181.34 6.432-28.915 6.258-62.369-12.719-86.562-19.624-23.99-50.273-34.488-78.256-45.623-25.902-8.74-56-15.172-81.742-2.656-11.106 5.215-19.663 14.477-24.791 25.632-1.671 1.661-2.492 8.373-4.737 4.587-25.165-29.3-64.838-44.1-103.28-42.8zm-28.84 18c35.854-0.116 74.499 6.857 101.19 32.691 6.673 4.085 11.048 11.029 12.169 18.697 3.351 13.83-0.02 29.871 8.267 42.175 3.776 4.79 11.599 7.852 16.877 4.626 13.284-11.02 13.284-29.91 12.801-45.748-0.396-14.66 0.874-32.643 14.39-41.441 15.22-8.914 33.98-3.979 49.467 1.478 14.66 6.558 30.745 9.069 44.966 16.833 24.385 11.869 47.438 32.778 51.823 60.689 3.67 58.989-20.349 114.8-46.009 166.47-28.108 60.563-62.466 118.4-103.6 171.1-18.272 26.684-42.851 49.167-56.681 78.652-62.683-54.691-120.79-116.4-160.77-190.03-33.749-60.689-50.526-133.3-36.127-202.29 6.932-31.455 19.649-62.881 40.584-87.711 12.66-14.9 30.86-26.2 50.66-26.4z" fill="#501919"/>
	<path id="path4675" d="m-84.498-3327.6l-24.473 10.16c-3.742 4.723-7.678 9.31-11.623 13.869-15.225 17.509-30.188 35.25-45.343 52.818-29.97 35.135-63.282 67.073-97.47 98.035-24.137 21.266-48.559 42.213-73.094 63.026-2.707-2.598-5.773-4.723-8.844-6.876-15.88-11.386-34.174-18.523-52.279-25.496-34.736-12.468-71.104-19.402-107.34-25.815-23.922-3.718-12.123-2.028-35.374-5.128l-17.688 12.536c23.521 2.791 11.587 1.208 35.719 4.723 35.859 6.191 71.855 13.125 105.94 26.25 17.314 7.195 34.792 14.612 49.469 26.559 3.127 2.453 6.374 4.858 8.781 8.064l14.936-9.156c-10.073 8.528-20.153 17.055-30.248 25.564l-20.721 9.899c-1.564 4.278-3.564 8.344-5.749 12.313-9.667 8.142-19.301 16.36-28.908 24.569l-7.748 3.931c-5.382-1.613-10.814-3.023-16.251-4.433-27.715-6.77-55.754-12.014-83.812-17.123-24.658-4.404-49.394-8.421-74.125-12.381l-18.719 13.192c25.035 3.554 50.048 7.195 74.936 11.686 27.413 5.119 54.814 10.527 81.595 18.407 6.83 2.144 13.682 4.278 20.25 7.156-6.217 5.341-12.442 10.681-18.656 16.031l17-6.876c-8.917 16.524-20.363 31.532-31.595 46.531-15.117 20.136-29.874 40.542-44.375 61.123-5.894 8.383-11.792 16.756-17.656 25.158l21.969-9.561c5.662-8.315 11.372-16.63 17.094-24.907 14.339-20.6 28.927-41.016 44.157-60.969 12.49-16.485 25.182-32.971 34.968-51.253 1.482-3.1 2.999-6.249 4.189-9.503 5.138-4.481 10.283-8.962 15.435-13.434-8.668 14.564-16.925 29.369-24.748 44.406-10.797 20.899-19.535 42.745-27.688 64.784-3.938 10.739-7.615 21.594-11.094 32.498l22.188-10.469c3.216-10.749 6.645-21.449 10.375-32.034 7.859-21.923 16.377-43.624 27.28-64.243 10.003-18.765 20.694-37.124 32.312-54.942 1.936-3.148 3.894-6.297 5.72-9.532 2.9-2.463 5.809-4.925 8.719-7.369 40.577-34.517 81.204-68.937 121.25-104.06 34.953-31.503 69.035-64.001 100.1-99.406 15.998-18.031 31.861-36.149 48.124-53.938 4.299-4.8 8.539-9.7 13.078-14.4zm-414.16 243.8l-18.282 12.912c4.974 0.695 9.933 1.391 14.907 2.086 26.216 4.037 52.6 8.074 77.875 16.379 6.15 2.183 12.77 4.172 18.125 8.026l22.249-14.4c-6.205-3.593-13.207-5.427-20.03-7.436-26.235-7.176-53.197-11.174-80.031-15.346-4.93-0.8-9.87-1.6-14.81-2.3zm170.94 1.7l-23.186 12.758c1.586 4.085 1.622 8.45 1.594 12.777-1.128 15.288-6.282 29.823-11.688 44.029-9.057 21.585-19.682 42.484-30.156 63.412-6.381 12.555-3.262 6.365-9.375 18.562l21.686-9.812c5.889-12.082 2.878-5.949 9.032-18.408 10.372-21.092 20.94-42.107 30.25-63.692 5.761-14.738 11.413-29.803 13.031-45.652 0.16-4.7 0.14-9.4-1.18-14z" fill="#010101"/>
</g>
<animateTransform attributeName="transform" 
						attributeType="XML"
						type="scale"
        				from="1 1" 
						to="0.8 0.8" 
						dur="0.9s" 
						repeatCount="indefinite"/>
<metadata><rdf:RDF><cc:Work><dc:format>image/svg+xml</dc:format><dc:type rdf:resource="http://purl.org/dc/dcmitype/StillImage"/><cc:license rdf:resource="http://creativecommons.org/licenses/publicdomain/"/><dc:publisher><cc:Agent rdf:about="http://openclipart.org/"><dc:title>Openclipart</dc:title></cc:Agent></dc:publisher><dc:title>cartomix</dc:title><dc:date>2008-01-12T08:55:30</dc:date><dc:description>a little collection of my cartoon art</dc:description><dc:source>http://openclipart.org/detail/14302/cartomix-by-xunoe-14302</dc:source><dc:creator><cc:Agent><dc:title>xunoe</dc:title></cc:Agent></dc:creator><dc:subject><rdf:Bag><rdf:li>baby</rdf:li><rdf:li>cartoon</rdf:li><rdf:li>clip art</rdf:li><rdf:li>clipart</rdf:li><rdf:li>collection</rdf:li><rdf:li>god</rdf:li><rdf:li>image</rdf:li><rdf:li>love</rdf:li><rdf:li>media</rdf:li><rdf:li>png</rdf:li><rdf:li>public domain</rdf:li><rdf:li>rose</rdf:li><rdf:li>sleep</rdf:li><rdf:li>svg</rdf:li></rdf:Bag></dc:subject></cc:Work><cc:License rdf:about="http://creativecommons.org/licenses/publicdomain/"><cc:permits rdf:resource="http://creativecommons.org/ns#Reproduction"/><cc:permits rdf:resource="http://creativecommons.org/ns#Distribution"/><cc:permits rdf:resource="http://creativecommons.org/ns#DerivativeWorks"/></cc:License></rdf:RDF></metadata></svg>
