<?xml version="1.0" encoding="UTF-8" standalone="no"?>
<!-- Created with Inkscape (http://www.inkscape.org/) -->

<svg
   xmlns:dc="http://purl.org/dc/elements/1.1/"
   xmlns:cc="http://creativecommons.org/ns#"
   xmlns:rdf="http://www.w3.org/1999/02/22-rdf-syntax-ns#"
   xmlns:svg="http://www.w3.org/2000/svg"
   xmlns="http://www.w3.org/2000/svg"
   xmlns:sodipodi="http://sodipodi.sourceforge.net/DTD/sodipodi-0.dtd"
   xmlns:inkscape="http://www.inkscape.org/namespaces/inkscape"
   version="1.1"
   width="150"
   height="150"
   id="svg2"
   inkscape:version="0.48.4 r9939"
   sodipodi:docname="crabvector_14.svg">
  <title
     id="title3027">Hombre Enamorado</title>
  <sodipodi:namedview
     pagecolor="#ffffff"
     bordercolor="#666666"
     borderopacity="1"
     objecttolerance="10"
     gridtolerance="10"
     guidetolerance="10"
     inkscape:pageopacity="0"
     inkscape:pageshadow="2"
     inkscape:window-width="1360"
     inkscape:window-height="720"
     id="namedview50"
     showgrid="false"
     inkscape:zoom="3.1466667"
     inkscape:cx="82.646745"
     inkscape:cy="73.089735"
     inkscape:window-x="0"
     inkscape:window-y="0"
     inkscape:window-maximized="1"
     inkscape:current-layer="svg2" />
  <defs
     id="defs4" />
  <metadata
     id="metadata7">
    <rdf:RDF>
      <cc:Work
         rdf:about="">
        <dc:format>image/svg+xml</dc:format>
        <dc:type
           rdf:resource="http://purl.org/dc/dcmitype/StillImage" />
        <dc:title>Hombre Enamorado</dc:title>
        <dc:creator>
          <cc:Agent>
            <dc:title>Tirso Otero</dc:title>
          </cc:Agent>
        </dc:creator>
        <dc:date>08-11-2013</dc:date>
        <cc:license
           rdf:resource="http://creativecommons.org/licenses/publicdomain/" />
      </cc:Work>
      <cc:License
         rdf:about="http://creativecommons.org/licenses/publicdomain/">
        <cc:permits
           rdf:resource="http://creativecommons.org/ns#Reproduction" />
        <cc:permits
           rdf:resource="http://creativecommons.org/ns#Distribution" />
        <cc:permits
           rdf:resource="http://creativecommons.org/ns#DerivativeWorks" />
      </cc:License>
    </rdf:RDF>
  </metadata>
  <g
     transform="matrix(0.50373618,0,0,0.50373618,2.1913089,-101.74347)"
     id="layer2">
    <g
       transform="translate(-2.1428571,-3.5714285)"
       id="g3040">
      <path
         d="m 113.71875,42.34375 c -0.20749,0.005 -0.4215,0.04485 -0.625,0.09375 -0.407,0.0978 -0.825,0.30543 -1.21875,0.5625 -0.39374,0.25707 -0.76847,0.54707 -1.125,0.90625 -0.71306,0.71834 -1.30055,1.5882 -1.71875,2.25 -0.41822,0.66181 -0.65625,1.125 -0.65625,1.125 L 108,48.0625 107.375,47.46875 c -0.60551,-0.57823 -1.2,-1.05546 -1.75,-1.4375 -0.55,-0.38205 -1.0708,-0.69443 -1.5625,-0.90625 -0.49169,-0.21181 -0.94442,-0.33872 -1.375,-0.40625 -0.43059,-0.0675 -0.82083,-0.0508 -1.1875,0 -0.36667,0.0508 -0.71311,0.13153 -1.03125,0.28125 -0.31814,0.14971 -0.607571,0.35921 -0.875,0.59375 -0.534864,0.4691 -0.962284,1.08855 -1.28125,1.8125 -0.318967,0.72395 -0.51387,1.55174 -0.5625,2.375 -0.04865,0.82325 0.03635,1.65139 0.28125,2.40625 0.12244,0.37743 0.274493,0.73078 0.46875,1.0625 0.194262,0.33171 0.414369,0.63463 0.6875,0.90625 0.273138,0.27162 0.609708,0.52162 0.96875,0.71875 0.35905,0.19714 0.76673,0.32923 1.21875,0.4375 1.16971,0.28016 1.91784,0.48343 2.46875,0.65625 0.55092,0.17281 0.90985,0.33308 1.28125,0.5625 0.50966,0.31483 1.73433,1.09052 2.875,1.8125 0.002,-0.18335 -0.0317,-0.38144 0,-0.5625 0.0679,-0.388 0.17272,-0.7786 0.34375,-1.15625 0.17104,-0.37765 0.38158,-0.71705 0.625,-1.09375 0.48684,-0.75342 1.11705,-1.51953 1.78125,-2.28125 0.66419,-0.76171 1.36653,-1.54636 2.0625,-2.3125 0.69597,-0.76613 1.39339,-1.50348 1.96875,-2.25 0.57536,-0.74651 1.03881,-1.48423 1.34375,-2.15625 0.30494,-0.67202 0.43222,-1.26794 0.375,-1.8125 -0.0277,-0.26316 -0.0916,-0.52456 -0.21875,-0.78125 -0.1271,-0.25669 -0.3085,-0.52271 -0.5625,-0.78125 -0.007,-0.005 -0.0245,0.0054 -0.0313,0 -0.48367,-0.3911 -0.92002,-0.6469 -1.34375,-0.75 -0.21481,-0.0523 -0.41751,-0.0673 -0.625,-0.0625 z m 117.40625,7.875 c -0.37665,0.004 -0.76081,0.06174 -1.15625,0.15625 -0.52725,0.12596 -1.0589,0.31592 -1.59375,0.59375 -0.53486,0.27783 -1.08208,0.635 -1.59375,1.03125 -0.51167,0.39625 -1.01107,0.83128 -1.46875,1.3125 -0.45769,0.48122 -0.87708,0.99851 -1.25,1.53125 -0.33036,0.47194 -0.47632,0.93278 -0.5,1.40625 -0.0237,0.47347 0.0929,0.95847 0.3125,1.5 0.21963,0.54152 0.57019,1.13036 1,1.71875 0.4298,0.58839 0.92652,1.18436 1.5,1.78125 1.86973,1.94604 4.11685,3.81307 5.8125,5.5625 0.0237,-0.10955 -0.004,-0.23706 0.0313,-0.34375 0.22589,-0.69138 0.6477,-1.32356 1.1875,-1.9375 0.5398,-0.61394 1.1843,-1.1933 1.90625,-1.78125 0.72194,-0.58795 1.52128,-1.19182 2.3125,-1.78125 0.79123,-0.58942 1.59658,-1.15611 2.34375,-1.75 0.74716,-0.5939 1.45014,-1.19108 2.03125,-1.78125 0.58112,-0.59017 1.01142,-1.15971 1.3125,-1.71875 0.30107,-0.55905 0.46904,-1.13285 0.4375,-1.65625 -0.0349,-0.5795 -0.16279,-0.94257 -0.34375,-1.21875 -0.18096,-0.27619 -0.41886,-0.44544 -0.71875,-0.5625 -0.2999,-0.11706 -0.66589,-0.16485 -1.09375,-0.15625 -0.42786,0.009 -0.92109,0.07319 -1.40625,0.1875 -0.97034,0.22854 -1.94649,0.63086 -2.6875,0.96875 -0.74102,0.33788 -1.25,0.59375 -1.25,0.59375 l -0.59375,0.34375 -0.28125,-0.625 c -0.3462,-0.78272 -0.74352,-1.39517 -1.15625,-1.875 -0.41274,-0.47983 -0.82925,-0.8256 -1.28125,-1.0625 -0.452,-0.2369 -0.9457,-0.39367 -1.4375,-0.4375 -0.12296,-0.0109 -0.24946,-0.0014 -0.375,0 z m 14.5625,57.96875 c -0.14977,0.0158 -0.31131,0.0523 -0.46875,0.0937 -0.65076,0.18329 -1.09309,0.39474 -1.40625,0.625 -0.31315,0.23026 -0.49732,0.46407 -0.625,0.71875 -0.12767,0.25467 -0.1869,0.5247 -0.28125,0.78125 -0.0944,0.25654 -0.22433,0.51415 -0.4375,0.75 -0.20975,-0.76667 -0.47316,-1.29752 -0.8125,-1.65625 -0.33934,-0.35872 -0.73247,-0.56671 -1.15625,-0.65625 -0.42377,-0.0895 -0.91681,-0.0382 -1.40625,0.0937 -0.48945,0.13191 -0.97494,0.3672 -1.4375,0.6875 -0.46255,0.3203 -0.88255,0.71599 -1.21875,1.15625 -0.33621,0.44027 -0.58262,0.92788 -0.71875,1.40625 -0.13612,0.47838 -0.17362,0.94577 -0.0625,1.40625 0.11111,0.46048 0.3624,0.89892 0.8125,1.34375 0.43845,0.43333 1.01804,1.02541 1.71875,1.8125 0.70072,0.78709 1.5239,1.76211 2.375,3.03125 0.0127,-0.57525 0.0684,-1.11082 0.1875,-1.59375 0.11913,-0.48293 0.30949,-0.89669 0.53125,-1.28125 0.38636,-0.66999 0.87803,-1.20226 1.4375,-1.625 0.55947,-0.42273 1.18211,-0.75346 1.78125,-1.03125 1.19827,-0.55561 2.36097,-0.94499 3.0625,-1.4375 0.35076,-0.24625 0.56443,-0.48937 0.6875,-0.78125 0.12302,-0.29187 0.19199,-0.65992 0.0625,-1.21875 -0.16286,-0.7029 -0.3932,-1.21549 -0.625,-1.59375 -0.23182,-0.37826 -0.46579,-0.62709 -0.71875,-0.78125 -0.25296,-0.15416 -0.55547,-0.23018 -0.84375,-0.25 -0.14414,-0.01 -0.28773,-0.0158 -0.4375,0 z m -189,16.9375 c -0.240142,-0.0133 -0.498337,0.0105 -0.78125,0.0313 -1.038921,0.0742 -1.885737,0.23674 -2.53125,0.5 -0.645514,0.26327 -1.092482,0.62619 -1.4375,1 -0.345015,0.37381 -0.603698,0.7938 -0.75,1.25 -0.146302,0.4562 -0.185477,0.93419 -0.1875,1.4375 0.01215,0.86674 0.19889,1.79453 0.28125,2.625 0.04118,0.41523 0.04874,0.79853 0,1.15625 -0.04874,0.35773 -0.164701,0.66958 -0.375,0.9375 -0.282692,-0.41317 -0.59728,-0.75824 -0.9375,-1.0625 -0.340219,-0.30427 -0.682977,-0.55105 -1.0625,-0.75 -0.379523,-0.19895 -0.786898,-0.3403 -1.1875,-0.4375 -0.400602,-0.0972 -1.08315,-0.35811 -1.486607,-0.35714 -0.403458,0.001 -0.799413,0.0606 -1.1875,0.15625 -0.388088,0.0956 -0.770506,0.21965 -1.125,0.40625 -0.354494,0.1866 -0.666075,0.44471 -0.96875,0.71875 -0.302676,0.27405 -0.579868,0.57957 -0.8125,0.9375 -0.427933,0.65842 -0.459116,1.55982 -0.575893,2.26339 -0.116777,0.70356 -0.059,1.39469 0.125,2.125 0.184012,0.73032 0.515331,1.49731 1,2.21875 0.484668,0.72144 1.121594,1.39657 1.90625,2.0625 0.742586,0.63022 1.615528,1.22349 2.625,1.75 1.009472,0.52652 2.113603,1.36979 3.374683,1.75381 1.261079,0.38402 2.658842,0.70354 4.15625,0.90625 1.497409,0.20272 3.378145,0.23549 5.096605,0.21811 -0.307103,-0.66391 -0.442556,-1.795 -0.530933,-2.6288 -0.08838,-0.8338 -0.07563,-1.74096 -0.03125,-2.6875 0.115242,-2.45777 0.271578,-5.19663 0.528395,-7.78062 0.128411,-1.292 0.212152,-2.50794 0.1875,-3.625 -0.02465,-1.11706 -0.170687,-2.12496 -0.4375,-2.90625 -0.133406,-0.39064 -0.299569,-0.71722 -0.5,-1 -0.200431,-0.28276 -0.437221,-0.534 -0.71875,-0.71875 -0.211146,-0.13857 -0.44287,-0.25695 -0.71875,-0.34375 -0.27588,-0.0868 -0.577285,-0.13636 -0.9375,-0.15625 z m 177.09375,14 c -0.27399,-0.003 -0.53557,0.0224 -0.78125,0.0937 -0.49136,0.14271 -0.9148,0.4243 -1.28125,0.8125 -0.36646,0.38821 -0.66535,0.87704 -0.84375,1.4375 -0.1784,0.56046 -0.23991,1.19672 -0.15625,1.84375 0.0837,0.64703 0.29905,1.32085 0.71875,1.96875 0.20986,0.32394 0.47351,0.62941 0.78125,0.9375 0.30775,0.30809 0.67886,0.62473 1.09375,0.90625 0.90589,0.61472 1.61326,1.14177 2.1875,1.65625 0.57424,0.51447 1.02233,1.0114 1.40625,1.59375 0.50284,0.76273 0.91821,1.72393 1.40625,2.875 0.17914,-0.5407 0.40496,-1.01633 0.6875,-1.46875 0.28255,-0.45242 0.61867,-0.86719 1,-1.21875 0.61944,-0.57108 1.33005,-1.03809 2.0625,-1.4375 0.73245,-0.3994 1.48596,-0.75046 2.21875,-1.0625 0.73279,-0.31203 1.43956,-0.58435 2.0625,-0.875 0.62295,-0.29066 1.16869,-0.59541 1.5625,-0.90625 0.39382,-0.31084 0.63737,-0.63095 0.75,-0.96875 0.10993,-0.3297 0.0965,-0.69162 -0.0937,-1.25 -0.28306,-0.55297 -0.59798,-0.97134 -0.96875,-1.28125 -0.37078,-0.30991 -0.80405,-0.52119 -1.25,-0.65625 -0.45208,-0.13691 -0.93446,-0.18852 -1.4375,-0.1875 -0.50304,10e-4 -1.02493,0.0549 -1.53125,0.15625 -1.01263,0.20253 -1.96136,0.57012 -2.65625,0.875 -0.69488,0.30489 -1.125,0.53125 -1.125,0.53125 l -0.5625,0.34375 -0.3125,-0.5625 c -0.35045,-0.62388 -0.70887,-1.15855 -1.0625,-1.625 -0.35364,-0.46644 -0.71595,-0.86243 -1.0625,-1.1875 -0.34656,-0.32506 -0.67079,-0.58151 -1,-0.78125 -0.32922,-0.19973 -0.63588,-0.34704 -0.9375,-0.4375 -0.30162,-0.0905 -0.60101,-0.12197 -0.875,-0.125 z"
         transform="translate(0,200)"
         id="path4184"
         style="fill:#e73f3a;stroke:none"
         inkscape:connector-curvature="0" />
      <path
         d="m 252.29641,411.16906 c -1.03113,-1.3195 -2.06085,-2.67568 -3.17595,-4.1082 -1.39543,-1.79266 -2.86441,-3.63276 -4.44001,-5.45126 -1.5756,-1.81851 -3.26217,-3.61695 -5.07205,-5.29326 -0.90494,-0.83816 -1.83887,-1.64642 -2.81254,-2.41752 -0.97366,-0.7711 -1.9846,-1.49746 -3.03375,-2.18051 -1.05515,-0.71821 -2.03658,-1.32402 -2.93893,-1.83288 -0.90235,-0.50887 -1.72664,-0.91515 -2.44912,-1.24826 -1.44497,-0.66623 -2.50212,-1.02022 -3.06535,-1.18506 -0.36528,1.37093 -0.78955,2.70163 -1.26406,3.99759 -0.47452,1.29596 -1.00145,2.55326 -1.58008,3.77639 -0.57862,1.22313 -1.20269,2.41853 -1.88029,3.57097 -0.6776,1.15244 -1.40905,2.26587 -2.1805,3.34976 -0.77146,1.08389 -1.58895,2.12687 -2.44912,3.14435 -0.86018,1.01748 -1.75817,2.01734 -2.70194,2.97055 -0.94376,0.95321 -1.9325,1.87405 -2.95474,2.76513 -1.02223,0.89108 -2.08038,1.74443 -3.17595,2.57553 -1.27421,0.96659 -2.59969,1.89081 -3.96599,2.78093 -1.3663,0.89012 -2.76793,1.74218 -4.21881,2.55972 -1.45088,0.81755 -2.94367,1.60543 -4.47162,2.35432 -1.52794,0.74889 -3.09534,1.46476 -4.69282,2.14891 -3.19498,1.36828 -6.52643,2.612 -9.95449,3.74477 -3.42805,1.13278 -6.95389,2.15259 -10.55491,3.08115 -1.81338,0.4676 -3.65121,0.85027 -5.49866,1.15346 -1.84745,0.30319 -3.70829,0.53426 -5.57767,0.67944 -1.86939,0.14517 -3.74588,0.21184 -5.62508,0.2054 -1.87919,-0.006 -3.764,-0.10117 -5.64087,-0.25281 -1.87687,-0.15164 -3.74684,-0.3732 -5.60927,-0.66363 -1.86243,-0.29044 -3.71022,-0.63582 -5.54607,-1.05866 -1.83585,-0.42283 -3.65412,-0.92064 -5.45127,-1.46946 -1.79714,-0.54883 -3.57854,-1.14868 -5.32485,-1.81709 -1.74631,-0.66841 -3.4677,-1.39891 -5.15105,-2.18051 -1.68335,-0.7816 -3.32158,-1.62395 -4.92984,-2.51232 -1.60826,-0.88837 -3.18758,-1.82379 -4.70863,-2.81254 -1.52104,-0.98875 -2.98671,-2.03003 -4.40841,-3.11275 -1.4217,-1.08272 -2.79798,-2.21108 -4.1082,-3.38136 -1.31023,-1.17029 -2.558161,-2.38273 -3.744781,-3.63418 -1.186626,-1.25144 -2.298877,-2.54498 -3.349766,-3.87118 -1.050889,-1.3262 -2.035905,-2.68204 -2.938939,-4.0766 l -0.0158,-0.0158 0,-0.0158 c -0.934063,-1.71582 -1.74726,-3.40488 -2.433317,-5.05624 -0.686057,-1.65136 -1.244974,-3.26502 -1.706483,-4.85084 -0.342424,0.16571 -1.660737,0.80884 -3.570977,1.8961 -1.910239,1.08725 -4.412406,2.61862 -7.126143,4.53481 -1.391308,0.99403 -2.869528,2.17372 -4.361017,3.47617 -1.491488,1.30246 -3.004617,2.72912 -4.471616,4.18721 -1.466993,1.45809 -2.885166,2.94747 -4.203001,4.40841 -0.79283,0.87893 -1.446196,1.69245 -2.148904,2.52812 62.231464,82.55727 148.344454,64.541 190.683634,-1.39047 z"
         id="path4088"
         style="fill:#52922f;stroke:none"
         inkscape:connector-curvature="0" />
      <path
         d="m 189.86759,293.56396 c -0.85948,0.58602 -1.75789,1.10207 -2.68613,1.56428 -0.92824,0.46221 -1.89468,0.86404 -2.85994,1.21665 -0.96526,0.35262 -1.93681,0.6592 -2.90734,0.91645 -0.97053,0.25725 -1.93167,0.47174 -2.87574,0.64783 -1.56315,0.29157 -3.06951,0.47614 -4.45581,0.60043 -1.38631,0.12429 -2.66215,0.18547 -3.72898,0.20541 -2.13368,0.0399 -3.47617,-0.0632 -3.47617,-0.0632 -0.38002,0.062 -3.95923,1.60891 -7.44216,3.14435 -3.48294,1.53544 -6.8696,3.05946 -6.87334,3.04955 -2.89285,1.16553 -5.98048,2.30735 -9.22765,3.41296 -3.24716,1.10561 -6.66362,2.16989 -10.20729,3.16015 -3.54367,0.99027 -7.21495,1.91405 -10.99733,2.73354 -3.78237,0.81949 -7.6661,1.53981 -11.62936,2.1331 -0.0531,0.11204 -0.21801,0.46652 -0.41083,1.07445 -0.19281,0.60794 -0.41348,1.46936 -0.61622,2.62293 -0.2256,1.28358 -0.40832,2.88238 -0.42663,4.80343 -0.009,0.96053 0.0266,2.01007 0.11061,3.12855 0.084,1.11849 0.22192,2.31129 0.42662,3.58678 0.41882,2.6096 0.59807,4.69072 0.60043,6.35191 10e-4,0.83059 -0.0416,1.55778 -0.12641,2.1963 -0.0848,0.63852 -0.20459,1.1826 -0.36341,1.65909 -0.15883,0.47647 -0.35518,0.87911 -0.58463,1.21665 -0.22946,0.33754 -0.49204,0.60999 -0.77424,0.82164 -0.2822,0.21166 -0.58712,0.36175 -0.88485,0.45822 -0.29771,0.0965 -0.58823,0.1393 -0.86903,0.15801 -0.32453,0.0216 -0.65468,-0.017 -0.97965,-0.12641 -0.32497,-0.10936 -0.6425,-0.29571 -0.94805,-0.53722 -0.30555,-0.24152 -0.60276,-0.54163 -0.86904,-0.91645 -0.26628,-0.37481 -0.50389,-0.81802 -0.71103,-1.32726 -0.32287,-0.79371 -0.57216,-1.75892 -0.72684,-2.92314 -0.15468,-1.16422 -0.21476,-2.52744 -0.14221,-4.1082 -0.3912,-0.36089 -1.16722,-1.02235 -2.1805,-1.67488 -0.50664,-0.32627 -1.062409,-0.6539 -1.674881,-0.93225 -0.612477,-0.27834 -1.274122,-0.51374 -1.959294,-0.66363 -0.419536,-0.0918 -0.85014,-0.15466 -1.279866,-0.1738 -0.429725,-0.0192 -0.859775,0.007 -1.295663,0.079 -0.435887,0.072 -0.873432,0.1977 -1.31146,0.37922 -0.438028,0.18154 -0.875331,0.41726 -1.311466,0.72684 -0.431908,0.30658 -0.868656,0.69103 -1.295663,1.15345 -0.427007,0.46243 -0.851892,1.00412 -1.264063,1.64329 -0.412171,0.63916 -0.813444,1.37529 -1.200855,2.2121 -0.38741,0.83681 -0.753333,1.77299 -1.106053,2.82834 0.02783,1.05556 0.137624,2.03011 0.316013,2.92314 0.178388,0.89303 0.418286,1.70423 0.726833,2.44912 0.308553,0.74489 0.68775,1.42716 1.106059,2.0383 0.418304,0.61114 0.882814,1.15149 1.390465,1.64328 0.506501,0.49068 1.049031,0.92482 1.627479,1.31146 0.578441,0.38665 1.187198,0.71887 1.817089,1.01125 0.62989,0.29239 1.282648,0.55054 1.943491,0.75844 0.660849,0.20789 1.335401,0.37245 2.006699,0.50562 0.353557,-0.378 0.896359,-0.92685 1.532677,-1.32726 0.318153,-0.2002 0.656844,-0.35526 1.011245,-0.44242 0.354404,-0.0872 0.722574,-0.10498 1.090254,0 0,0 -0.38961,0.31454 -1.027047,0.91644 -0.637444,0.60191 -1.523614,1.48804 -2.543928,2.65453 -1.020314,1.16649 -2.169525,2.60406 -3.318159,4.29781 -0.574314,0.84687 -1.14782,1.76184 -1.706483,2.73353 -0.558664,0.97169 -1.100487,2.00511 -1.611676,3.09695 -0.511195,1.09184 -0.990088,2.23951 -1.422071,3.44457 -0.431979,1.20506 -0.817184,2.46208 -1.137654,3.77638 -0.320471,1.31431 -0.581779,2.68862 -0.75844,4.1082 -0.176655,1.41958 -0.268066,2.88753 -0.268609,4.40841 -5.48e-4,1.52089 0.09234,3.09042 0.300216,4.70863 0.207866,1.61821 0.531073,3.28147 0.979644,4.99305 0.448577,1.71156 1.016499,3.47649 1.738084,5.27745 0.721585,1.80095 1.596026,3.64389 2.622927,5.53026 0.88108,1.35798 1.831683,2.68887 2.85994,3.9818 1.028258,1.29292 2.139099,2.55497 3.302362,3.77638 1.163254,1.22142 2.379694,2.39592 3.665774,3.53937 1.28608,1.14346 2.63247,2.24333 4.0292,3.30237 1.39673,1.05903 2.85001,2.08138 4.34521,3.04954 1.49519,0.96816 3.03233,1.89431 4.61382,2.76513 1.58149,0.87084 3.21104,1.68209 4.86664,2.44912 1.6556,0.76704 3.3387,1.47632 5.05624,2.13311 1.71754,0.65679 3.46275,1.2612 5.23006,1.80129 1.76729,0.54009 3.55157,1.02094 5.35646,1.43787 1.80488,0.41692 3.63677,0.77133 5.46706,1.05864 1.83028,0.28732 3.67095,0.5124 5.51447,0.66364 1.84351,0.15124 3.6857,0.2283 5.53026,0.23701 1.84457,0.009 3.68103,-0.0494 5.51447,-0.18961 1.83343,-0.14027 3.65693,-0.36792 5.46707,-0.66363 1.81013,-0.29572 3.61341,-0.66424 5.38806,-1.12186 3.57705,-0.92238 7.07797,-1.94245 10.47591,-3.06535 3.39793,-1.1229 6.68553,-2.34557 9.84387,-3.69737 1.57917,-0.6759 3.1375,-1.37886 4.64543,-2.11731 1.50793,-0.73844 2.96349,-1.51818 4.39261,-2.32271 1.42913,-0.80453 2.82863,-1.63815 4.1714,-2.51232 1.34277,-0.87418 2.63815,-1.78617 3.88699,-2.73353 1.24885,-0.94736 2.43882,-1.9317 3.58677,-2.95475 1.14795,-1.02304 2.24656,-2.08882 3.28656,-3.19175 1.04,-1.10293 2.02975,-2.24177 2.95475,-3.42877 0.92499,-1.18699 1.78839,-2.42211 2.59132,-3.69738 0.80294,-1.27526 1.5383,-2.59826 2.21211,-3.96599 0.67381,-1.36772 1.29525,-2.77023 1.83289,-4.2346 0.53763,-1.46438 0.99606,-2.98541 1.39046,-4.55062 0.39441,-1.56522 0.71974,-3.18058 0.96385,-4.85084 0.21021,-1.43821 0.31068,-2.83078 0.31602,-4.1714 0.005,-1.34062 -0.0944,-2.62685 -0.26862,-3.87119 -0.17419,-1.24434 -0.43002,-2.43737 -0.75843,-3.58677 -0.32841,-1.1494 -0.72777,-2.26239 -1.18506,-3.31816 -0.45729,-1.05578 -0.97182,-2.05447 -1.53267,-3.01795 -0.56085,-0.96348 -1.16222,-1.89262 -1.80129,-2.76514 -0.63908,-0.8725 -1.31472,-1.69785 -2.0067,-2.48072 -0.69198,-0.78286 -1.39775,-1.51755 -2.1173,-2.2121 -1.4391,-1.38909 -2.90958,-2.60343 -4.29781,-3.63418 -1.38823,-1.03074 -2.69236,-1.87994 -3.82378,-2.55972 -2.26285,-1.35955 -3.80799,-2.0225 -3.80799,-2.0225 0.23958,-0.15686 0.47716,-0.25595 0.72683,-0.30022 0.24968,-0.0443 0.50205,-0.0368 0.79005,0.0158 0.57597,0.10523 1.2662,0.39161 2.1647,0.79004 0.6546,-0.11148 1.44646,-0.20894 2.32271,-0.37922 0.87626,-0.17029 1.83457,-0.41873 2.79674,-0.82164 0.48108,-0.20146 0.96075,-0.43463 1.43787,-0.72684 0.47711,-0.2922 0.9501,-0.63817 1.40626,-1.04285 0.45617,-0.40467 0.8932,-0.86739 1.31147,-1.40627 0.41826,-0.53888 0.82167,-1.15388 1.18506,-1.84869 0.4062,-0.82822 0.68908,-1.70713 0.83744,-2.60712 0.14836,-0.9 0.16071,-1.82814 0.0316,-2.74933 -0.12911,-0.9212 -0.3954,-1.82592 -0.82164,-2.71774 -0.42623,-0.89181 -1.0109,-1.76366 -1.75388,-2.57552 -0.65342,-0.48583 -1.27969,-0.89939 -1.88029,-1.24826 -0.60061,-0.34888 -1.17211,-0.62674 -1.72229,-0.85324 -0.55017,-0.22651 -1.07794,-0.40269 -1.58007,-0.52143 -0.50214,-0.11875 -0.9814,-0.17983 -1.43787,-0.20541 -0.91295,-0.0512 -1.73611,0.0663 -2.48072,0.30021 -0.74461,0.23387 -1.41136,0.57754 -2.0067,0.97965 -0.59835,0.40415 -1.11731,0.8703 -1.56428,1.34307 -0.44696,0.47277 -0.82506,0.94638 -1.12185,1.37466 -0.59357,0.85658 -0.88484,1.51688 -0.88484,1.51688 l -0.0948,-0.0474 c -0.20101,0.3576 -0.36258,0.63933 -0.52142,0.85324 -0.19738,0.2658 -0.54026,0.51907 -0.88485,0.53722 -0.34458,0.0182 -0.54845,-0.0772 -0.82164,-0.1422 -0.27318,-0.0651 -0.62092,-0.12844 -1.15345,-0.15801 l -0.33182,-0.0316 -0.17381,-0.28441 c -0.38771,-0.66465 -0.71057,-1.56143 -0.99544,-2.63873 -0.28488,-1.0773 -0.53178,-2.33511 -0.75844,-3.71318 -0.45331,-2.75614 -0.79445,-5.96377 -1.05865,-9.03804 -0.41451,-4.82337 -0.59174,-8.4884 -0.66363,-10.1915 -0.19174,0.24437 -0.38011,0.50447 -0.56883,0.80585 -0.50924,0.81325 -1.00883,1.80878 -1.48527,2.90734 -0.47645,1.09855 -0.92975,2.30014 -1.37467,3.50777 l -0.41082,1.10605 -0.69523,-0.94804 c -0.51918,-0.7034 -0.92919,-1.40976 -1.23246,-2.11731 -0.30327,-0.70754 -0.5015,-1.41548 -0.63203,-2.1015 -0.13054,-0.68602 -0.18862,-1.35209 -0.18961,-1.9909 -0.001,-0.63881 0.0568,-1.25116 0.1422,-1.81708 -0.14159,0.21227 -0.0812,0.0921 -0.23701,0.33181 l -0.80583,1.24826 -0.34762,-1.45367 c -0.26869,-1.1587 -0.37234,-2.32906 -0.34762,-3.49197 0.0247,-1.16291 0.16902,-2.31962 0.41082,-3.44456 0.2418,-1.12496 0.58127,-2.22594 0.96384,-3.27077 0.38258,-1.04481 0.81703,-2.03222 1.26407,-2.95474 0.40051,-0.8265 0.81574,-1.59228 1.21666,-2.29111 z"
         id="path4112"
         style="fill:#fdcb7b;stroke:none"
         inkscape:connector-curvature="0" />
      <path
         d="m 144.31398,315.32161 c -0.65236,0.82886 -1.43147,1.58834 -2.30691,2.29112 -0.87544,0.70277 -1.85408,1.35572 -2.87574,1.94349 -1.02166,0.58777 -2.08492,1.11202 -3.17595,1.59588 -1.09104,0.48385 -2.20299,0.92043 -3.28656,1.31146 -0.35305,0.1274 -0.69537,0.24563 -1.04285,0.36342 -0.16395,0.31123 -0.93093,1.78589 -1.75389,3.90278 -0.41147,1.05845 -0.84633,2.27792 -1.21666,3.58678 -0.37032,1.30886 -0.67713,2.71452 -0.86904,4.1398 -0.10191,0.75695 -0.17038,1.51008 -0.1896,2.25951 -0.0192,0.74943 0.0133,1.49109 0.0948,2.21211 0.0815,0.72101 0.21062,1.4298 0.41082,2.1015 0.2002,0.6717 0.46891,1.31041 0.80584,1.91189 0.33454,0.59724 0.74163,1.15549 1.23246,1.67488 0.49082,0.5194 1.06368,1.00054 1.73808,1.42207 0.67441,0.42153 1.45324,0.7866 2.33852,1.09026 0.88527,0.30365 1.87871,0.54529 3.00214,0.71103 0.0629,-0.0313 0.12681,-0.0643 0.18961,-0.0948 1.21164,-0.58914 2.39506,-1.0322 3.49197,-1.37466 1.09691,-0.34246 2.09813,-0.58029 2.97054,-0.74263 1.74484,-0.3247 2.94014,-0.35976 3.12855,-0.36343 0.8246,-0.65665 1.55084,-1.32503 2.19631,-2.00669 0.64547,-0.68166 1.2071,-1.37139 1.69068,-2.0699 0.48358,-0.69852 0.89355,-1.41009 1.23246,-2.1173 0.33892,-0.70722 0.61016,-1.40955 0.82164,-2.11731 0.21148,-0.70776 0.35695,-1.41715 0.45822,-2.1173 0.10127,-0.70015 0.14972,-1.40131 0.15801,-2.0857 0.0166,-1.36878 -0.12726,-2.69339 -0.37922,-3.95019 -0.25372,-1.26561 -0.61704,-2.45821 -1.01124,-3.52357 -0.39421,-1.06536 -0.81792,-2.00906 -1.21667,-2.79674 -0.79747,-1.57535 -1.46947,-2.51232 -1.46947,-2.51232 l -0.0158,-0.0316 -0.0158,-0.0158 c -0.41352,-0.68369 -0.9119,-1.29832 -1.42207,-1.83289 -0.51017,-0.53457 -1.03319,-0.99059 -1.53268,-1.37467 -0.99898,-0.76817 -1.86823,-1.23248 -2.1805,-1.39047 z"
         id="path4144"
         style="fill:#ffffff;stroke:none"
         inkscape:connector-curvature="0" />
      <path
         d="m 160.41497,315.132 c -0.12205,0.0218 -0.44711,0.0801 -0.86905,0.22122 -0.42194,0.14109 -0.93819,0.36433 -1.48527,0.69523 -0.54708,0.3309 -1.11423,0.76766 -1.61168,1.35887 -0.24873,0.2956 -0.49169,0.63735 -0.69523,1.01124 -0.20355,0.3739 -0.36909,0.78726 -0.50563,1.24826 0,0 4e-5,0.0314 0,0.0316 -0.004,0.012 -0.0123,0.0196 -0.0158,0.0316 -0.009,0.0501 -0.26327,1.46357 -0.44242,3.60257 -0.0896,1.0695 -0.16332,2.31178 -0.17381,3.66577 -0.0105,1.35401 0.04,2.81779 0.18961,4.29781 0.15099,1.49345 0.40998,2.99706 0.80583,4.44002 0.19793,0.72148 0.42223,1.44083 0.69524,2.1173 0.27301,0.67647 0.5907,1.31783 0.94805,1.9277 0.35351,0.60332 0.74257,1.17088 1.18505,1.69068 0.44249,0.5198 0.94088,0.98526 1.48528,1.40627 0.5444,0.421 1.14203,0.79912 1.80128,1.10605 0.65926,0.30693 1.37766,0.54924 2.16471,0.72683 1.19995,-0.20487 2.2827,-0.47736 3.27075,-0.80584 0.98806,-0.32846 1.874,-0.71982 2.67033,-1.15345 0.79634,-0.43363 1.50831,-0.90169 2.13311,-1.42207 0.62479,-0.52038 1.16983,-1.08618 1.64328,-1.67488 0.47853,-0.59502 0.88731,-1.22963 1.23245,-1.88029 0.34515,-0.65067 0.62476,-1.3181 0.85325,-2.0067 0.22849,-0.6886 0.40865,-1.39266 0.53723,-2.1015 0.12856,-0.70884 0.20742,-1.42175 0.25281,-2.1331 0.0845,-1.32521 0.0371,-2.61392 -0.079,-3.82379 -0.11613,-1.20986 -0.29831,-2.33997 -0.50562,-3.31816 -0.41462,-1.95639 -0.90477,-3.33402 -1.02705,-3.66578 -1.35199,-0.18161 -2.61182,-0.39645 -3.77638,-0.64783 -1.16457,-0.25137 -2.23444,-0.5407 -3.22336,-0.85324 -0.98892,-0.31254 -1.89269,-0.64616 -2.71773,-1.01125 -0.82505,-0.36509 -1.57078,-0.76022 -2.24371,-1.16926 -0.98785,-0.60046 -1.80666,-1.24538 -2.49652,-1.91189 z"
         id="path4140"
         style="fill:#ffffff;stroke:none"
         inkscape:connector-curvature="0" />
      <path
         d="m 163.90625,127.875 c -0.90445,0 -1.75588,0.17499 -2.53125,0.46875 -0.77535,0.29378 -1.48092,0.69637 -2.0625,1.21875 -0.58159,0.52238 -1.05186,1.15792 -1.375,1.84375 -0.32313,0.68584 -0.5,1.4346 -0.5,2.21875 0,0.78413 0.17687,1.53447 0.5,2.21875 0.32314,0.68428 0.79341,1.29219 1.375,1.8125 0.58158,0.5203 1.28715,0.9578 2.0625,1.25 0.77537,0.29222 1.6268,0.4375 2.53125,0.4375 0.90445,0 1.75278,-0.14528 2.53125,-0.4375 0.77848,-0.2922 1.47676,-0.7297 2.0625,-1.25 0.58575,-0.52031 1.04876,-1.12822 1.375,-1.8125 0.32625,-0.68428 0.53125,-1.43462 0.53125,-2.21875 0,-0.78415 -0.205,-1.53291 -0.53125,-2.21875 -0.32624,-0.68583 -0.78925,-1.32137 -1.375,-1.84375 -0.58574,-0.52238 -1.28402,-0.92497 -2.0625,-1.21875 -0.77847,-0.29376 -1.6268,-0.46875 -2.53125,-0.46875 z M 144.125,129.25 c -0.92673,0 -1.7993,0.199 -2.59375,0.5 -0.79446,0.301 -1.49784,0.71475 -2.09375,1.25 -0.5959,0.53524 -1.07516,1.17227 -1.40625,1.875 -0.33109,0.70273 -0.5,1.4778 -0.5,2.28125 0,0.80346 0.16891,1.58012 0.5,2.28125 0.33109,0.70112 0.81035,1.31062 1.40625,1.84375 0.59591,0.53312 1.29929,0.98184 2.09375,1.28125 0.79445,0.29941 1.66702,0.46875 2.59375,0.46875 0.92672,0 1.82896,-0.16934 2.625,-0.46875 0.79605,-0.29941 1.49571,-0.74813 2.09375,-1.28125 0.59803,-0.53313 1.10481,-1.14263 1.4375,-1.84375 0.33268,-0.70113 0.5,-1.47779 0.5,-2.28125 0,-0.80345 -0.16732,-1.57852 -0.5,-2.28125 -0.33269,-0.70273 -0.83947,-1.33976 -1.4375,-1.875 -0.59804,-0.53525 -1.2977,-0.949 -2.09375,-1.25 -0.79604,-0.301 -1.69828,-0.5 -2.625,-0.5 z"
         transform="translate(0,200)"
         id="path4168"
         style="fill:#775425;stroke:none"
         inkscape:connector-curvature="0" />
      <path
         d="m 138.26463,132.31468 c -0.14389,-0.14389 2.18012,6.97835 11.67989,6.12405 -2.96732,2.20971 -4.79823,4.23001 -9.40705,1.89403 -3.09359,-2.52538 -4.60882,-5.42957 -2.27284,-8.01808 z"
         transform="translate(0,200)"
         id="path3021"
         style="fill:#6e4b28;stroke:none"
         inkscape:connector-curvature="0" />
      <path
         d="m 158.08887,330.98885 c -0.14389,-0.14389 2.18012,6.97835 11.67989,6.12405 -2.96732,2.20971 -4.79823,4.23001 -9.40705,1.89403 -3.09359,-2.52538 -4.60882,-5.42957 -2.27284,-8.01808 z"
         id="path3023"
         style="fill:#6e4b28;stroke:none"
         inkscape:connector-curvature="0" />
      <path
         d="m 95.333147,137.93365 c 0,0 3.472399,2.52538 1.957171,5.80838 1.641497,1.6415 2.209708,2.58851 3.598672,-1.07329 -0.18941,-1.89404 -4.987632,-4.48255 -5.555843,-4.73509 z"
         transform="translate(0,200)"
         id="path3029"
         style="fill:#f9af53;stroke:none"
         inkscape:connector-curvature="0" />
      <path
         d="m 98.805546,151.82325 c -0.105889,0.21178 -12.489302,-1.28537 -12.12183,-13.82647 -1.136422,6.06092 -1.704633,10.54347 10.543467,15.59423 0.820749,-0.94701 1.578363,-1.76776 1.578363,-1.76776 z"
         transform="translate(0,200)"
         id="path3031"
         style="fill:#f9af53;stroke:none"
         inkscape:connector-curvature="0" />
      <path
         d="m 207.32143,149.01786 c 0,0 12.13421,0.72195 12.13421,-12.41004 -1.76777,4.60883 -3.53553,10.98541 -14.33154,11.61676 1.13642,0.50508 2.19733,0.79328 2.19733,0.79328 z"
         transform="translate(0,200)"
         id="path3033"
         style="fill:#f9af53;stroke:none"
         inkscape:connector-curvature="0" />
      <path
         d="m 206.26052,135.97648 c -0.40757,-0.32605 -0.30778,6.69226 5.14547,3.88277 0.59978,0.53665 1.19955,2.20971 -0.91545,2.71479 -2.11501,0.50507 -5.99778,-0.44194 -5.2086,-4.13531 0.53664,-2.11501 0.97858,-2.46225 0.97858,-2.46225 z"
         transform="translate(0,200)"
         id="path3035"
         style="fill:#f9af53;stroke:none"
         inkscape:connector-curvature="0" />
      <path
         d="m 128.54191,177.64527 c 0,0 9.11399,21.935 36.11296,12.87945 6.69226,-3.283 11.11167,-10.98541 12.12183,-13.76333 -4.86915,6.88255 -22.30602,25.8552 -48.23479,0.88388 z"
         transform="translate(0,200)"
         id="path3037"
         style="fill:#f9af53;stroke:none"
         inkscape:connector-curvature="0" />
      <path
         d="m 89.903577,196.45936 c 0,0 13.889593,36.3655 68.942913,34.59773 46.46702,-6.06092 63.89215,-30.55712 66.9226,-48.23479 -4.50941,25.16068 -79.62174,79.48557 -135.865513,13.63706 z"
         transform="translate(0,200)"
         id="path3039"
         style="fill:#f9af53;stroke:none"
         inkscape:connector-curvature="0" />
      <path
         d="m 109.22274,117.5412 c 0,0 35.98669,-4.9245 58.84139,-17.803943 8.83884,0.252538 14.14214,-0.126269 18.18275,-2.399112 -1.38896,3.282995 -4.04061,12.121835 0.25253,17.803935 0,-2.65165 0.50508,-3.6618 0.50508,-3.6618 0,0 -1.26269,4.16688 3.40927,8.83884 0.88388,-2.27285 4.29314,-11.61676 4.29314,-11.61676 0,0 -3.91434,4.29315 -4.29314,7.82868 -1.38896,-2.27284 -2.90419,-6.31345 -2.02031,-8.83883 -1.13642,0 -1.38896,0.88388 -1.38896,0.88388 0,0 -1.51523,-7.3236 4.29315,-15.909901 -2.90419,0.757615 -8.9651,6.565992 -25.00128,4.924494 -10.98541,5.808377 -34.97653,14.268407 -56.69481,18.182747 -0.25254,1.51523 -0.37881,1.76777 -0.37881,1.76777 z"
         transform="translate(0,200)"
         id="path3041"
         style="fill:#f9af53;stroke:none"
         inkscape:connector-curvature="0" />
      <path
         d="m 127.76786,141.875 c 0,0 1.33928,5.08928 8.83928,6.60714 -1.7901,1.07875 -9.56543,2.5793 -8.83928,-6.60714 z"
         transform="translate(0,200)"
         id="path3043"
         style="fill:#f9af53;stroke:none"
         inkscape:connector-curvature="0" />
      <path
         d="m 170.15625,46.65625 c -2.31757,0.0269 -4.76316,0.20497 -7.34375,0.53125 -2.06883,0.26158 -4.06422,0.59508 -5.96875,0.96875 -1.90453,0.37367 -3.72382,0.78143 -5.46875,1.25 -1.74491,0.46857 -3.40998,0.98497 -5,1.53125 -1.59002,0.54627 -3.12268,1.11197 -4.5625,1.71875 -1.43981,0.60678 -2.79943,1.25616 -4.09375,1.90625 -1.29431,0.6501 -2.50274,1.32379 -3.65625,2 -2.30704,1.35242 -4.35295,2.74004 -6.125,4.09375 -1.08514,0.82896 -2.07546,1.65175 -2.96875,2.4375 -0.8933,0.78576 -1.6951,1.50617 -2.40625,2.21875 -1.42229,1.42516 -2.46681,2.70361 -3.21875,3.65625 1.42818,-0.80444 2.84142,-1.62942 4.21875,-2.4375 3.35304,-1.96722 6.44912,-3.87433 8.71875,-5.3125 1.13481,-0.71908 2.07115,-1.31375 2.71875,-1.75 -0.0239,0.29808 -0.12311,0.58845 -0.25,0.875 -0.12689,0.28655 -0.30692,0.56108 -0.5,0.8125 -0.38617,0.50285 -0.85121,0.90422 -1.28125,1.125 -2.28331,1.44681 -5.41464,3.36856 -8.78125,5.34375 -3.36662,1.97518 -6.95619,3.99625 -10.28125,5.71875 -1.66253,0.86125 -3.26694,1.65984 -4.71875,2.3125 -1.45181,0.65267 -2.76746,1.18411 -3.875,1.53125 -1.0537,0.33027 -2.29768,0.76754 -3.6875,1.3125 -1.38981,0.54496 -2.926804,1.17937 -4.53125,1.9375 -1.604441,0.75812 -3.302403,1.62396 -5,2.59375 -1.697592,0.96979 -3.393231,2.03882 -5.0625,3.21875 -1.669263,1.17993 -3.2944,2.49016 -4.8125,3.875 -0.759047,0.69243 -1.487887,1.41309 -2.1875,2.15625 -0.699614,0.74315 -1.374255,1.48769 -2,2.28125 -0.625739,0.79355 -1.212553,1.62513 -1.75,2.46875 -0.537442,0.84362 -1.002785,1.70039 -1.4375,2.59375 -0.43472,0.89337 -0.838693,1.80723 -1.15625,2.75 -0.317564,0.94276 -0.564028,1.91441 -0.75,2.90625 -0.377622,2.014 -0.615474,3.96951 -0.71875,5.875 -0.103275,1.90549 -0.06878,3.75696 0.03125,5.53125 0.100033,1.77429 0.298954,3.50462 0.53125,5.125 0.232297,1.62038 0.487739,3.14998 0.78125,4.59375 0.587033,2.88755 1.224275,5.38124 1.625,7.4375 0.118643,0.60878 0.176739,1.09447 0.25,1.625 0.336439,-0.40435 0.598319,-0.69768 0.875,-0.9375 0.276687,-0.23981 0.563231,-0.42469 0.96875,-0.59375 0,0 0.189239,1.33802 0.65625,3.40625 0.233511,1.03412 0.54677,2.26586 0.9375,3.59375 0.390736,1.3279 0.862555,2.74595 1.4375,4.21875 0.558452,1.43055 1.184102,2.89412 1.9375,4.3125 0.753404,1.41838 1.626619,2.78819 2.59375,4.0625 0.483563,0.63715 0.990737,1.26734 1.53125,1.84375 0.54052,0.5764 1.118933,1.12584 1.71875,1.625 0.599817,0.49917 1.213533,0.9383 1.875,1.34375 0.661468,0.40544 1.368285,0.76727 2.09375,1.0625 0.719786,-1.14778 1.440007,-2.2078 2.15625,-3.15625 0.716242,-0.94845 1.412649,-1.78457 2.0625,-2.53125 -1.308506,-0.30606 -2.604543,-0.76194 -3.84375,-1.375 -0.619601,-0.30653 -1.235586,-0.63255 -1.8125,-1.03125 -0.576914,-0.3987 -1.10769,-0.84261 -1.625,-1.34375 -0.571035,-0.5532 -1.09237,-1.18689 -1.5625,-1.875 -0.47013,-0.68811 -0.904799,-1.45036 -1.25,-2.28125 -0.345202,-0.83088 -0.616257,-1.73723 -0.8125,-2.71875 -0.196244,-0.98152 -0.320488,-2.01624 -0.34375,-3.15625 l 0,-0.125 0.03125,-0.0937 c 0.367745,-1.11471 0.773389,-2.12996 1.1875,-3.03125 0.41411,-0.90129 0.858904,-1.67006 1.3125,-2.375 0.453595,-0.70493 0.920057,-1.34939 1.40625,-1.875 0.486193,-0.52563 0.988092,-0.94914 1.5,-1.3125 0.767863,-0.54505 1.554093,-0.90601 2.34375,-1.125 0.789651,-0.219 1.577403,-0.31182 2.34375,-0.28125 0.510894,0.0204 1.016632,0.0818 1.5,0.1875 0.604211,0.13217 1.198837,0.34053 1.75,0.5625 0.551169,0.22197 1.048383,0.47914 1.53125,0.75 0.96575,0.54173 1.80518,1.1331 2.40625,1.625 0.0388,-0.42539 0.069,-0.85857 0.125,-1.3125 0.20611,0.18801 0.34707,0.42349 0.46875,0.6875 0.12169,0.26402 0.22022,0.57757 0.28125,0.90625 0.12205,0.65736 0.13422,1.40208 0.15625,2.25 0.022,0.84794 0.0442,1.77104 0.15625,2.71875 0.11215,0.94771 0.32634,1.9183 0.71875,2.875 0.17592,0.43247 0.33466,0.7797 0.53125,1.0625 0.1966,0.2828 0.42512,0.52838 0.625,0.6875 0.39977,0.31823 0.78512,0.39558 1.09375,0.375 0.39605,-0.0264 0.73308,-0.0967 1.0625,-0.34375 0.16471,-0.12353 0.34419,-0.29903 0.5,-0.53125 0.15581,-0.23223 0.30902,-0.52083 0.4375,-0.90625 0.12848,-0.38543 0.20773,-0.86636 0.28125,-1.4375 0.0735,-0.57114 0.12547,-1.24895 0.125,-2.03125 -0.001,-1.5646 -0.15135,-3.56318 -0.5625,-6.125 -0.21028,-1.31022 -0.35063,-2.56415 -0.4375,-3.71875 -0.0869,-1.15461 -0.13408,-2.22188 -0.125,-3.21875 0.0182,-1.99372 0.20022,-3.68123 0.4375,-5.03125 0.26531,-1.50951 0.59198,-2.55967 0.84375,-3.25 -0.43231,0.061 -0.84726,0.1296 -1.28125,0.1875 -1.01277,0.55481 -2.57979,1.41229 -4.59375,2.625 -1.47615,0.88886 -2.99058,1.85546 -4.25,2.75 -1.259428,0.89455 -2.28714,1.76735 -2.625,2.25 0.223021,-0.61264 0.562971,-1.18978 0.96875,-1.75 0.405779,-0.56022 0.891603,-1.11772 1.4375,-1.625 0.545897,-0.50729 1.137859,-0.98367 1.78125,-1.4375 0.64339,-0.45384 1.33302,-0.88139 2.03125,-1.28125 0.67453,-0.40616 1.34598,-0.76521 1.96875,-1.125 -2.366,0.26896 -4.752104,0.49141 -7.15625,0.65625 -2.404145,0.16484 -4.822261,0.26116 -7.25,0.3125 0.510352,-0.20765 1.24379,-0.37359 2.125,-0.53125 0.881216,-0.15765 1.918846,-0.29963 2.96875,-0.4375 2.099815,-0.27573 4.313433,-0.5284 5.875,-0.90625 -1.926316,-0.21682 -3.816352,-0.58542 -5.53125,-0.96875 -2.055854,-0.45954 -3.864975,-0.97637 -5.15625,-1.375 -1.291276,-0.39865 -2.0625,-0.65625 -2.0625,-0.65625 0.752183,-0.0391 1.526342,-0.0129 2.34375,0.0625 0.817407,0.0754 1.666987,0.19215 2.53125,0.34375 1.72852,0.30321 3.538001,0.71564 5.34375,1.09375 1.80575,0.37811 3.6077,0.69718 5.34375,0.84375 0.86803,0.0733 1.73945,0.10456 2.5625,0.0625 0.82305,-0.042 1.61529,-0.14803 2.375,-0.34375 3.24116,-0.45632 6.43056,-0.97762 9.5625,-1.59375 3.13194,-0.61612 6.2009,-1.31755 9.1875,-2.0625 -1.85621,0.43569 -3.6274,0.81052 -5.3125,1.125 -1.6851,0.31448 -3.29097,0.57586 -4.8125,0.78125 -3.04306,0.41081 -5.75353,0.60901 -8.1875,0.65625 -2.43396,0.0472 -4.58362,-0.0619 -6.46875,-0.28125 -1.88513,-0.21929 -3.5097,-0.54868 -4.90625,-0.9375 -1.438813,-0.40058 -2.640945,-0.86942 -3.625,-1.34375 -0.984049,-0.47435 -1.746091,-0.97062 -2.34375,-1.40625 -0.597665,-0.43561 -1.031343,-0.83098 -1.3125,-1.125 -0.281157,-0.29402 -0.40625,-0.46875 -0.40625,-0.46875 0.509244,0.0473 1.063597,0.23969 1.65625,0.5 0.592647,0.26031 1.234487,0.59177 1.90625,0.9375 0.671764,0.34573 1.347163,0.69637 2.09375,1 0.746588,0.30362 1.557894,0.55351 2.375,0.6875 1.179492,0.31135 2.4025,0.51783 3.6875,0.65625 1.28501,0.13843 2.6155,0.21164 3.96875,0.21875 2.70649,0.0142 5.5254,-0.20735 8.28125,-0.46875 2.75585,-0.2614 5.46168,-0.57707 7.96875,-0.78125 1.25354,-0.10209 2.42706,-0.16213 3.5625,-0.1875 1.13544,-0.0254 2.23867,9.5e-4 3.21875,0.0937 4.27092,-1.09815 8.33602,-2.31797 12.21875,-3.59375 3.88272,-1.27577 7.57503,-2.60142 10.96875,-3.96875 2.03662,-0.82055 3.97815,-1.67475 5.8125,-2.5 1.83434,-0.82525 3.54669,-1.62755 5.15625,-2.4375 1.60956,-0.80995 3.10647,-1.60035 4.46875,-2.375 1.36228,-0.77466 2.59501,-1.53064 3.6875,-2.25 1.0925,-0.71937 2.04403,-1.42213 2.84375,-2.0625 0.79972,-0.64038 1.45706,-1.22287 1.9375,-1.75 0.48045,-0.52713 0.76724,-1.00361 0.90625,-1.34375 0.13901,-0.34014 0.1223,-0.48053 0.0625,-0.59375 0.27838,0.0526 0.48411,0.16239 0.625,0.34375 0.14089,0.18136 0.21977,0.42362 0.21875,0.6875 -0.001,0.26388 -0.0714,0.54358 -0.21875,0.84375 -0.14732,0.30017 -0.35821,0.61601 -0.65625,0.90625 -0.54228,0.59497 -1.2568,1.23975 -2.09375,1.90625 -0.83695,0.66648 -1.81875,1.35709 -2.9375,2.09375 -1.11349,0.73318 -2.34334,1.49734 -3.71875,2.28125 0.93669,0.029 2.36847,0.0327 4.125,-0.0625 1.75652,-0.0951 3.81872,-0.28063 6,-0.6875 1.51737,-0.28302 3.08712,-0.6847 4.625,-1.1875 1.53788,-0.50281 3.04429,-1.09614 4.46875,-1.875 0.71223,-0.38943 1.40374,-0.8435 2.0625,-1.3125 0.65875,-0.46899 1.28645,-0.97566 1.875,-1.53125 0.58854,-0.55559 1.1234,-1.16328 1.625,-1.8125 0.50159,-0.64922 0.9771,-1.34387 1.375,-2.09375 0.18133,0.50207 0.20147,1.00661 0.0625,1.5625 -0.13896,0.55588 -0.44298,1.17111 -0.9375,1.9375 0,0 -0.48252,0.62306 -1.1875,1.6875 -0.70497,1.06444 -1.63833,2.5656 -2.5,4.34375 -0.37753,0.77909 -0.74464,1.60693 -1.0625,2.46875 -0.31786,0.86183 -0.56106,1.7412 -0.78125,2.65625 -0.22019,0.91505 -0.41544,1.87373 -0.5,2.8125 -0.0846,0.93877 -0.0891,1.87952 0,2.8125 0.63151,-0.87135 1.48989,-2.07702 1.53125,-2.125 5.9e-4,-0.001 0,-0.0313 0,-0.0313 0.001,-0.002 0.0937,-0.0937 0.0937,-0.0937 0.16413,0.44139 0.1927,1.06303 0.15625,1.8125 -0.0364,0.74947 -0.14324,1.62912 -0.1875,2.5625 -0.0443,0.93338 -0.047,1.91312 0.0937,2.90625 0.0704,0.49656 0.191,0.98053 0.34375,1.46875 0.15276,0.48822 0.3345,0.97315 0.59375,1.4375 0.38196,-0.99946 0.77883,-1.98649 1.1875,-2.90625 0.40867,-0.91976 0.84841,-1.75885 1.3125,-2.5 0.28008,-0.4473 0.56659,-0.8564 0.875,-1.21875 0.3084,-0.36235 0.61798,-0.68527 0.96875,-0.9375 0.20466,-0.14296 0.40415,-0.2592 0.59375,-0.3125 0.1896,-0.0533 0.38681,-0.0485 0.5625,0 0.17568,0.0485 0.3371,0.15001 0.5,0.3125 0.16291,0.16248 0.31749,0.39887 0.46875,0.6875 -0.39475,-0.094 -0.74455,-0.0301 -1.125,0.1875 0.0241,0.63188 0.22649,5.49069 0.71875,11.21875 0.26252,3.05483 0.58674,6.23492 1.03125,8.9375 0.21002,1.27697 0.46293,2.4381 0.71875,3.40625 0.25582,0.96816 0.51348,1.75837 0.78125,2.28125 0.3634,0.0426 0.74922,0.0727 0.96875,0.125 0.27009,0.0643 0.39042,0.0853 0.40625,0.0937 0.006,-0.009 -0.0102,-0.0174 0,-0.0313 0.10189,-0.13721 0.27505,-0.45772 0.5625,-0.96875 l 0.0937,0.0313 c 0.19735,-0.38826 0.58694,-1.09344 1.21875,-1.90625 0.31589,-0.4064 0.69134,-0.82825 1.125,-1.25 0.43366,-0.42175 0.91124,-0.84218 1.46875,-1.21875 0.68829,-0.46489 1.49311,-0.8633 2.375,-1.125 0.44094,-0.13085 0.88826,-0.22304 1.375,-0.28125 0.48675,-0.0582 1.00044,-0.0915 1.53125,-0.0625 0.53081,0.029 1.08227,0.11869 1.65625,0.25 0.57398,0.1313 1.19669,0.315 1.8125,0.5625 0.61582,0.24749 1.24995,0.55992 1.90625,0.9375 0.6563,0.37759 1.30456,0.82217 2,1.34375 l 0.0625,0.0313 0.0313,0.0313 c 0.5089,0.55252 0.93678,1.12123 1.3125,1.71875 0.37571,0.59751 0.68973,1.21534 0.9375,1.84375 0.36684,-0.79212 0.86664,-1.90202 1.4375,-3.28125 0.57085,-1.37924 1.22771,-3.00883 1.875,-4.84375 0.6473,-1.83492 1.3101,-3.87208 1.90625,-6.03125 0.59616,-2.15918 1.1138,-4.46049 1.53125,-6.8125 0.26478,-1.49188 0.47619,-2.98092 0.625,-4.5 0.14881,-1.51908 0.24872,-3.08328 0.25,-4.59375 0.001,-1.51047 -0.10344,-3.00271 -0.28125,-4.46875 -0.1778,-1.46604 -0.42407,-2.89545 -0.8125,-4.28125 -0.38843,-1.38579 -0.90503,-2.72736 -1.53125,-4 -0.62622,-1.27264 -1.38104,-2.46395 -2.28125,-3.59375 -0.4501,-0.56489 -0.94336,-1.13263 -1.46875,-1.65625 -0.52539,-0.52362 -1.0823,-1.02136 -1.6875,-1.5 -0.6052,-0.47863 -1.24796,-0.91382 -1.9375,-1.34375 -0.68953,-0.42994 -1.40911,-0.84122 -2.1875,-1.21875 l -0.65625,-0.3125 0.375,-0.59375 c 0.21193,-0.35321 0.49404,-0.6206 0.84375,-0.8125 0.3497,-0.19188 0.77579,-0.29492 1.1875,-0.375 0.82344,-0.16018 1.73883,-0.14067 2.65625,-0.03125 0.8043,0.0959 1.58138,0.27192 2.28125,0.5 -0.29983,-0.47789 -0.60899,-0.94667 -0.9375,-1.34375 -0.32852,-0.39708 -0.70093,-0.72771 -1.09375,-1 -0.31406,-0.21771 -0.65207,-0.40864 -1.03125,-0.5625 -0.37917,-0.15386 -0.7855,-0.26035 -1.25,-0.34375 -0.92899,-0.16682 -2.04594,-0.18587 -3.4375,-0.03125 0.0458,-0.66857 0.14628,-1.18994 0.4375,-1.8125 0.29122,-0.62256 0.75175,-1.36101 1.46875,-2.5 0.18035,-0.44764 0.34589,-0.92039 0.4375,-1.4375 0.0916,-0.51711 0.12895,-1.07479 0.0937,-1.65625 -0.0352,-0.58146 -0.14369,-1.20306 -0.34375,-1.84375 -0.20006,-0.64068 -0.50329,-1.30521 -0.90625,-2 -0.30247,1.40218 -0.68095,2.73448 -0.96875,3.6875 -0.2878,0.95302 -0.46875,1.53125 -0.46875,1.53125 l -0.84375,2.0625 -0.375,-2.1875 c 0,0 -0.0996,-0.67488 -0.34375,-1.6875 -0.2441,-1.01263 -0.63193,-2.36468 -1.125,-3.78125 -0.24652,-0.70829 -0.53491,-1.43399 -0.84375,-2.125 -0.30885,-0.691 -0.63324,-1.34899 -1,-1.9375 -0.27453,-0.44053 -0.57211,-0.80838 -0.875,-1.125 -0.3029,-0.31661 -0.62235,-0.56053 -0.9375,-0.78125 -0.22499,1.04038 -0.40123,1.89854 -0.5625,2.5625 0.15788,0.22617 0.24897,0.47269 0.3125,0.71875 0.0635,0.24605 0.0926,0.50458 0.0937,0.75 0.002,0.49085 -0.10025,0.94731 -0.15625,1.3125 0,0 -0.43756,-0.8347 -1.375,-2.15625 l -0.3125,-0.09375 c 0,0 0.0192,-0.11008 0.0625,-0.25 -0.75203,-1.02818 -1.75691,-2.28238 -3.09375,-3.65625 -0.66843,-0.68694 -1.42244,-1.43532 -2.25,-2.15625 -0.82755,-0.72092 -1.7547,-1.4363 -2.75,-2.15625 -1.46098,-1.05682 -3.09934,-2.07514 -4.9375,-3.03125 -0.91908,-0.47805 -1.88791,-0.94369 -2.90625,-1.375 -1.01834,-0.4313 -2.09783,-0.84859 -3.21875,-1.21875 -1.12091,-0.37017 -2.27319,-0.70535 -3.5,-1 -1.22681,-0.29466 -2.50774,-0.54524 -3.84375,-0.75 -1.33601,-0.20476 -2.73897,-0.36827 -4.1875,-0.46875 -1.44853,-0.10048 -2.93564,-0.14318 -4.5,-0.125 z M 160.9375,105.375 c -0.20065,0.0355 -0.40782,0.13139 -0.625,0.28125 -0.21719,0.14985 -0.4305,0.39088 -0.625,0.65625 -0.19451,0.26536 -0.39062,0.54691 -0.53125,0.90625 -0.14062,0.35934 -0.22571,0.78697 -0.28125,1.21875 -0.0556,0.43178 -0.0608,0.8923 0,1.375 0.0608,0.48269 0.17458,0.98578 0.375,1.5 0.20042,0.51422 0.47307,1.03689 0.84375,1.5625 0.37068,0.52563 0.83472,1.0456 1.40625,1.5625 0.57152,0.51691 1.25954,1.04318 2.0625,1.53125 0.61436,0.37343 1.29369,0.72153 2.0625,1.0625 0.76881,0.34097 1.6299,0.67074 2.5625,0.96875 0.9326,0.29799 1.95676,0.56798 3.0625,0.8125 1.10573,0.24453 2.2743,0.44445 3.5625,0.625 -0.98861,-0.43697 -1.8858,-0.88497 -2.71875,-1.375 -0.83295,-0.49003 -1.58815,-1.00291 -2.28125,-1.53125 -0.6931,-0.52834 -1.33719,-1.07308 -1.90625,-1.625 -0.56906,-0.55191 -1.07041,-1.12676 -1.53125,-1.6875 -0.92166,-1.12148 -1.63514,-2.24417 -2.21875,-3.3125 -0.5836,-1.06833 -1.03422,-2.07153 -1.40625,-2.96875 -0.19093,-0.46044 -0.41311,-0.79339 -0.625,-1.03125 -0.21189,-0.23787 -0.39976,-0.39538 -0.59375,-0.46875 -0.097,-0.0367 -0.18442,-0.0514 -0.28125,-0.0625 -0.0968,-0.011 -0.21218,-0.0178 -0.3125,0 z m -18.625,5.28125 c -0.40438,0.0385 -0.86639,0.16906 -1.375,0.375 -0.50861,0.20593 -1.04588,0.48893 -1.625,0.875 -0.75418,0.50279 -1.80929,1.37734 -3.03125,2.46875 -1.22197,1.0914 -2.60965,2.39325 -4.09375,3.71875 -0.98421,0.87902 -2.02307,1.77442 -3.0625,2.625 -1.03944,0.85059 -2.07305,1.66295 -3.125,2.40625 1.75627,-0.43234 3.90381,-0.99708 6.25,-1.84375 1.26333,-0.4559 2.53892,-0.97524 3.78125,-1.5625 1.24234,-0.58727 2.4336,-1.25468 3.53125,-1.96875 1.09766,-0.71407 2.10821,-1.47618 2.9375,-2.3125 0.41464,-0.41816 0.76939,-0.86463 1.09375,-1.3125 0.32436,-0.44787 0.62513,-0.89799 0.84375,-1.375 -0.0553,-0.64629 -0.21418,-1.15954 -0.4375,-1.46875 -0.24027,-0.33269 -0.51983,-0.50851 -0.9375,-0.59375 -0.20883,-0.0426 -0.48042,-0.057 -0.75,-0.0313 z"
         transform="translate(0,200)"
         id="path4100"
         style="fill:#ffd14d;stroke:none"
         inkscape:connector-curvature="0" />
      <path
         d="m 159.19643,143.39286 c 0,0 7.23214,5.80357 15.80357,-4.55358 -0.28132,4.15247 -8.32966,13.74302 -15.80357,4.55358 z"
         transform="translate(0,200)"
         id="path3045"
         style="fill:#f9af53;stroke:none"
         inkscape:connector-curvature="0" />
      <path
         d="m 85.862967,191.4086 c 0,0 11.146825,43.696 71.734203,43.1476 21.91571,-1.53318 60.79569,-14.37762 69.72426,-46.87763 -3.57143,-1.07143 -2.68876,-1.06819 -2.68876,-1.06819 0,0 -6.69226,37.37564 -65.78618,44.44671 -17.67767,1.76777 -57.32616,-5.3033 -71.215756,-40.15357 -0.505077,-0.25253 -1.767767,0.50508 -1.767767,0.50508 z"
         transform="translate(0,200)"
         id="path3047"
         style="fill:#266f30;stroke:none"
         inkscape:connector-curvature="0" />
      <path
         d="m 108.46513,179.79185 c 0,0 -2.14657,20.70812 21.2132,16.28871 2.02031,4.54568 7.70242,26.01142 33.96638,16.92005 -13.63706,7.95496 -27.90546,5.05077 -35.1028,-14.89975 -6.06091,2.39912 -25.38008,0.63135 -20.07678,-18.30901 z"
         transform="translate(0,200)"
         id="path3059"
         style="fill:#f9af53;stroke:none"
         inkscape:connector-curvature="0" />
      <path
         d="m 42.767857,132.27678 c 0,0 -7.455357,6.74108 7.008929,13.48215 8.526786,2.00893 11.071429,1.29464 11.071429,1.29464 0,0 -21.383929,-2.1875 -18.080358,-14.77679 z"
         transform="translate(0,200)"
         id="path3061"
         style="fill:#d62636;stroke:none"
         inkscape:connector-curvature="0" />
      <path
         d="m 125.06951,123.47584 c 0,0 14.64721,-5.11389 19.57171,-11.55362 0.25253,1.89404 -3.53554,9.02824 -19.57171,11.55362 z"
         transform="translate(0,200)"
         id="path3012"
         style="fill:#daa90e;stroke:none"
         inkscape:connector-curvature="0" />
      <path
         d="m 159.54097,105.54564 c 0,0 -2.20971,11.74302 16.66751,14.079 -1.51523,0.75761 -22.66529,-1.26269 -16.66751,-14.079 z"
         transform="translate(0,200)"
         id="path3014"
         style="fill:#daa90e;fill-opacity:1;stroke:none"
         inkscape:connector-curvature="0" />
      <path
         d="m 100.72536,244.17254 c -9.819506,8.48872 1.00386,11.6765 7.28435,14.74522 -1.51523,-5.80838 -12.797631,-3.79743 -7.28435,-14.74522 z"
         id="path3016"
         style="fill:#d62636;stroke:none"
         inkscape:connector-curvature="0" />
      <path
         d="m 231.22444,249.60211 c -15.56475,6.59468 -4.29944,13.88621 1.1603,17.77568 0.1894,-6.37659 -13.17644,-10.17402 -1.1603,-17.77568 z"
         id="path3020"
         style="fill:#d62636;stroke:none"
         inkscape:connector-curvature="0" />
      <path
         d="m 240.63149,308.38036 c -11.2716,2.49093 -1.90033,9.15112 0.21328,12.47238 0.3788,-6.7554 -8.12568,-5.75461 -0.21328,-12.47238 z"
         id="path3024"
         style="fill:#d62636;stroke:none"
         inkscape:connector-curvature="0" />
      <path
         d="m 234.35797,338.49765 c -10.64026,3.31168 1.57207,9.8456 4.12762,15.75538 0.3788,-6.7554 -9.83032,-8.59567 -4.12762,-15.75538 z"
         id="path3030"
         style="fill:#d62636;stroke:none"
         inkscape:connector-curvature="0" />
      <path
         d="m 164.73214,98.571429 c 0,0 17.94643,1.339286 28.48214,-9.017857 -4.10714,6.071429 -7.58928,13.124998 -6.16071,19.107148 1.60714,-0.89286 1.25,-1.51786 1.25,-1.51786 0,0 -0.17857,7.23214 1.78571,9.10714 1.51786,-3.66071 3.39286,-7.67857 4.91072,-8.125 0,2.67857 0.84332,23.05326 3.3687,26.46252 2.02031,0.75762 2.02031,0.50508 2.02031,0.50508 0,0 3.6618,-8.71257 11.86929,-6.56599 4.29315,1.64149 7.19734,5.3033 7.19734,6.81853 0.75761,-2.65165 -6.9448,-15.40483 -17.80394,-5.55584 -1.51523,1.89403 -2.27284,2.90419 -2.27284,2.90419 0,0 -3.03046,-20.8344 -2.52538,-23.35978 1.01015,-0.63135 1.76776,-0.50508 1.76776,-0.50508 0,0 -1.76776,-5.42957 -5.17703,-2.39911 -2.39911,2.90419 -3.26564,6.07048 -3.26564,6.07048 0,0 0.98214,-6.42857 -0.53571,-9.46428 -0.80358,0.89285 -1.51786,1.78571 -1.51786,1.78571 0,0 1.51786,-9.107143 5.89286,-13.303572 1.69642,-1.25 2.14285,-4.732143 0.89285,-7.678571 -0.89285,1.607143 -3.75,10.892857 -22.23214,12.321428 3.21428,-2.767857 3.03572,-3.660714 4.55357,-6.25 -2.58928,1.964286 -35.26786,18.125005 -53.66071,21.517855 0.17857,1.60715 1.56122,0.17798 1.56122,0.17798 l 2.84105,-0.1894 -0.69448,0.94702 -19.57171,4.04061 c 0,0 -8.207485,3.15672 -10.101521,6.06091 4.166881,-1.26269 9.217641,-4.79822 9.975261,-3.91434 -1.51655,6.23709 -0.1313,12.80045 0.24487,14.6459 0.22957,2.55842 0.89155,8.46134 -1.12876,8.58761 -1.35066,-0.093 -2.0203,-0.37881 -2.65165,-8.08122 -0.25254,-2.14658 -1.38896,-3.53554 -2.14657,-4.41942 -0.12627,2.02031 -0.12627,2.02031 -0.12627,2.02031 0,0 -11.237949,-9.84899 -18.182747,5.80837 -0.252539,7.95495 0.126269,12.62691 10.73287,17.04633 -1.26269,2.0203 -3.661803,5.17703 -3.661803,5.17703 l 1.515229,1.13642 5.555839,-7.19734 c 0,0 -13.763328,-2.14657 -11.490485,-15.65736 2.020305,-6.06092 8.838835,-10.35406 16.162437,-4.29315 0.75762,4.92449 0.12627,9.97526 4.16688,10.48033 2.65165,-1.01015 3.66181,-3.6618 2.77792,-10.6066 -1.26269,-4.92449 -0.59901,-15.16284 0.47242,-16.85927 2.58928,-0.98215 24.10714,-5.625 27.23214,-7.14286 5.6104,-0.7129 29.91962,-11.720401 27.67857,-10.625001 z"
         transform="translate(0,200)"
         id="path3032"
         style="fill:#daa90e;fill-opacity:1;stroke:none"
         inkscape:connector-curvature="0" />
      <path
         d="m 219.73214,135.26786 c 0,0 21.06297,-39.318673 -4.19084,-53.587078 0.12627,-1.388959 6.09248,-1.104854 6.91323,-0.0947 -0.72605,-1.736199 -2.58852,-5.776809 -7.76555,-4.95606 1.29426,-2.651651 4.23959,-7.567519 0.31102,-11.674662 -0.75893,1.964286 -1.91964,5.803572 -1.91964,5.803572 0,0 -2.14286,-9.464286 -6.02679,-11.875 -0.75893,1.875 -1.16071,3.258928 -1.16071,3.258928 -1.65257,-5.23801 -36.24199,-32.880338 -78.19547,-1.832404 -3.38854,2.50771 -5.96664,4.967621 -9.50954,9.248498 -0.25254,1.38896 -1.6415,1.641498 -1.6415,1.641498 0,0 -10.6066,4.924494 -15.9099,6.69226 -5.303304,1.767767 -29.925772,13.258253 -29.168158,34.471458 1.515229,17.42513 2.272843,16.92005 2.272843,16.92005 0,0 1.262691,6.31345 1.136422,7.82868 1.262691,-1.51523 1.894036,-2.14657 1.894036,-2.14657 0,0 2.65165,20.45559 15.404826,25.25381 -7.071068,-7.3236 -13.258252,-12.75317 -13.51079,-30.30457 -2.020305,2.14657 -2.146574,2.39911 -2.146574,2.39911 0,0 -7.508522,-25.40176 4.234501,-37.902384 10.792607,-13.380804 51.925014,-22.448007 58.353584,-36.912293 -3.57143,0.357143 -5,0.892857 -5,0.892857 0,0 36.07143,-24.642857 71.25,7.857143 1.96429,3.035715 2.85714,-1.785714 2.85714,-1.785714 0,0 4.46429,8.928571 1.25,14.821429 2.85715,-3.571429 3.92858,-5.178572 3.92858,-5.178572 l -1.42858,4.821429 2.85715,-0.535715 -4.10715,5.535715 c 0,0 26.96429,7.499999 9.01786,51.339285 z"
         transform="translate(0,200)"
         id="path3034"
         style="fill:#fff58d;stroke:none"
         inkscape:connector-curvature="0" />
      <path
         d="m 113.70564,241.08962 c -0.3049,-4.1e-4 -0.61107,0.041 -0.90065,0.1106 -1.15827,0.27839 -2.14415,1.01631 -2.95474,1.83289 -1.16564,1.17428 -1.84755,2.31213 -2.2279,3.00215 -2.3437,-2.03779 -4.49298,-2.82652 -6.30451,-2.57553 -1.971347,0.27313 -3.404251,1.70338 -4.1714,3.44457 -0.767155,1.74119 -0.92974,3.82931 -0.331816,5.67247 0.597919,1.84317 2.018186,3.44714 4.250406,3.9818 2.33182,0.55851 2.78642,0.67534 3.38136,1.04285 0.59495,0.3675 1.44254,1.09319 4.2188,2.68613 0.42653,-0.84812 0.42029,-1.37223 0.56883,-2.27531 0.0914,-0.52229 0.37286,-1.14702 0.80584,-1.81709 0.86598,-1.34014 2.30614,-2.85953 3.71318,-4.40841 1.40705,-1.54888 2.79039,-3.10865 3.52357,-4.72443 0.3666,-0.80789 0.56211,-1.64236 0.47403,-2.48072 -0.0881,-0.83837 -0.48345,-1.66552 -1.20086,-2.37012 l -0.0158,-0.0158 -0.0315,-0.0158 c -0.92181,-0.7525 -1.88203,-1.08903 -2.79674,-1.09026 z m 0,1.26406 c 0.20749,-0.005 0.41722,0.0109 0.63203,0.0632 0.42374,0.1031 0.87519,0.33574 1.35887,0.72684 0.007,0.005 0.009,0.0103 0.0158,0.0158 0.508,0.51709 0.73473,1.02215 0.79004,1.54848 0.0572,0.54455 -0.0743,1.14506 -0.37922,1.81708 -0.60988,1.34404 -1.91041,2.89195 -3.30236,4.42422 -1.39195,1.53227 -2.8659,3.0596 -3.83959,4.56642 -0.48684,0.75341 -0.85968,1.49932 -0.99544,2.27531 -0.0317,0.18106 0.002,0.36968 0,0.55303 -1.14068,-0.72199 -2.36608,-1.50226 -2.87574,-1.81709 -0.7428,-0.45884 -1.40537,-0.64053 -3.74479,-1.20086 -1.808074,-0.43307 -2.844203,-1.63463 -3.333958,-3.14435 -0.489754,-1.50973 -0.369325,-3.32393 0.268615,-4.77183 0.637934,-1.44791 1.725083,-2.49873 3.191753,-2.70193 1.46667,-0.20321 3.45588,0.43642 5.87789,2.74933 l 0.61623,0.60043 0.37922,-0.77424 c 0,0 0.95979,-1.92887 2.38591,-3.36556 0.71306,-0.71835 1.52451,-1.28963 2.33851,-1.48527 0.2035,-0.0489 0.40874,-0.0742 0.61623,-0.079 z m 56.25072,3.06535 c -0.4153,0.006 -0.8409,0.0169 -1.26406,0.0316 -1.9344,0.0671 -3.95029,0.22413 -6.05169,0.48982 -16.77628,2.12114 -28.2278,8.16473 -35.47272,13.69927 -7.24492,5.53453 -10.3179,10.60231 -10.3179,10.60231 l 0.079,0.0473 c -4.697,2.57225 -9.19135,4.81022 -11.99278,5.68828 -4.34036,1.36041 -11.818804,4.43417 -18.644909,9.25925 -6.826105,4.82507 -13.023109,11.42039 -14.599906,19.82996 -1.554046,8.28826 -0.540366,15.7392 0.647829,21.58384 0.594103,2.92232 1.222331,5.44429 1.611681,7.44216 0.389351,1.99788 0.480332,3.4841 0.205408,4.1714 1.111271,-0.29767 1.583843,-0.30531 2.291164,-1.97506 0.37643,2.01634 1.060182,5.17315 2.686127,9.33825 2.269659,5.81405 6.049692,12.26211 12.261398,14.88432 -0.647045,1.10122 -1.276912,2.26857 -1.864493,3.52357 -3.157998,6.74508 -5.127618,15.70482 -2.385913,26.26087 -0.213044,0.10146 -5.241873,2.51657 -11.076339,6.63632 -5.960451,4.20872 -12.726522,10.16067 -15.879768,17.30185 4.176014,-5.24402 11.041368,-12.29869 16.606607,-16.27479 5.427473,-3.83239 10.012265,-6.09951 10.697113,-6.43091 0.923018,3.17161 2.271687,6.47542 4.139801,9.90707 l 0,0.0158 0.0158,0.0158 c 14.44854,22.31294 48.59921,36.28644 77.61337,28.8048 14.40405,-3.71425 27.665,-8.93704 37.85863,-16.66981 8.76459,-6.6487 15.26444,-15.18281 18.18668,-26.15027 1.12645,0.32968 4.23277,1.39333 8.45341,4.26621 8.39312,5.46436 14.26262,14.0827 19.34014,20.47779 -6.18657,-11.28139 -13.17912,-17.81098 -18.6291,-21.52064 -4.36322,-2.96992 -7.66082,-4.1066 -8.84843,-4.45581 0.33452,-1.40455 0.60482,-2.84592 0.82164,-4.32941 1.74941,-11.96972 -3.81291,-20.768 -9.74908,-26.49789 -2.7388,-2.64365 -5.56549,-4.63715 -7.82138,-6.03589 4.96026,-0.32395 8.60182,-2.9641 10.3021,-6.43091 1.00896,-2.05722 1.32526,-4.40283 0.86905,-6.69953 0.36769,-0.73515 5.37779,-10.87479 7.45796,-22.59509 1.07967,-6.08321 1.36191,-12.57491 -0.26862,-18.3921 -1.55511,-5.54815 -4.92145,-10.45553 -10.90253,-13.65185 0.1704,-0.0738 0.34579,-0.14315 0.58463,-0.18961 0.63302,-0.12314 1.45296,-0.12969 2.27531,-0.0316 0.82236,0.0981 1.64848,0.2993 2.30692,0.53722 0.65844,0.23793 1.14856,0.55482 1.24826,0.67944 0.56032,-1.51416 -1.41715,-4.79803 -2.43332,-5.32486 -1.16467,-0.80733 -2.62843,-1.2629 -4.53482,-1.29566 -0.0756,-0.002 -0.16014,-1.1e-4 -0.23701,0 0.47968,-0.62769 1.01656,-1.44262 1.42207,-2.44912 0.95635,-2.37381 1.15725,-5.7815 -1.64328,-9.44886 l -0.91645,-1.20086 -0.22121,1.48527 c -0.24401,1.64708 -0.67209,3.2256 -1.04285,4.42422 -0.24648,-0.99616 -0.54487,-2.16588 -0.99545,-3.46037 -0.51249,-1.47241 -1.16435,-3.01266 -1.97509,-4.31361 -0.81074,-1.30095 -1.77955,-2.39746 -3.03375,-2.89154 l -0.72683,-0.28441 -0.12641,0.75844 c -0.18627,1.02447 -0.36022,1.80367 -0.52143,2.46491 -1.62923,-2.09151 -4.1612,-4.84027 -7.75817,-7.44216 -6.06211,-4.38505 -15.17188,-8.3671 -28.04636,-8.18479 z m 0.18961,1.24826 c 12.51489,-0.14549 21.27017,3.73633 27.11412,7.96358 3.98116,2.87981 6.58595,5.90722 8.08999,7.96359 0.44115,0.58725 1.13421,1.66771 1.62749,2.51232 0.11203,-0.73037 0.36292,-1.87625 -0.26861,-2.78093 0.16126,-0.66396 0.35964,-1.55094 0.58463,-2.59133 0.63029,0.44144 1.25222,1.04664 1.80128,1.9277 0.73351,1.17702 1.35564,2.64422 1.84869,4.06079 0.98612,2.83314 1.46947,5.46707 1.46947,5.46707 l 0.37922,2.1805 0.82164,-2.0541 c 0,0 0.84873,-2.40988 1.45367,-5.21425 1.61187,2.7792 1.44822,5.14597 0.72684,6.93653 -1.434,2.27798 -1.83606,2.96067 -1.9277,4.29781 2.78313,-0.30924 4.4794,0.0772 5.73568,0.94805 0.78561,0.54457 1.40704,1.38273 2.0067,2.33851 -0.69988,-0.22808 -1.45522,-0.40969 -2.25951,-0.50562 -0.91742,-0.10942 -1.84689,-0.12858 -2.67033,0.0316 -0.82344,0.16017 -1.59864,0.49443 -2.0225,1.20085 l -0.36342,0.60043 0.63203,0.30022 c 6.22719,3.02018 9.53841,7.77686 11.09214,13.32004 1.55373,5.54319 1.29615,11.87158 0.23701,17.83907 -1.66977,9.40804 -5.27955,17.79916 -6.74692,20.96762 -0.49555,-1.25681 -1.24171,-2.46594 -2.25951,-3.57098 l -0.0316,-0.0316 -0.0474,-0.0316 c -2.78174,-2.08631 -5.25572,-2.96509 -7.37895,-3.08116 -2.12324,-0.11606 -3.90088,0.52388 -5.27746,1.45368 -2.23006,1.50626 -3.44488,3.61609 -3.83959,4.39261 l -0.079,-0.0473 c -0.28746,0.51103 -0.46694,0.84243 -0.56883,0.97964 -0.0102,0.0137 0.006,0.007 0,0.0158 -0.0158,-0.009 -0.12494,-0.0305 -0.39502,-0.0948 -0.21953,-0.0523 -0.60044,-0.0838 -0.96385,-0.12641 -0.53554,-1.04576 -1.08102,-3.11853 -1.50107,-5.67247 -0.4445,-2.70259 -0.78032,-5.8884 -1.04285,-8.94323 -0.49225,-5.72806 -0.68695,-10.58666 -0.71103,-11.21854 0.38044,-0.21762 0.72711,-0.2836 1.12185,-0.18961 -0.60503,-1.1545 -1.29867,-1.25125 -2.1173,-0.67944 -0.70155,0.50446 -1.30433,1.25432 -1.86449,2.14891 -0.92816,1.4823 -1.7168,3.42074 -2.48072,5.41966 -2.07403,-3.71486 -0.35469,-8.44171 -1.01123,-10.2073 0,0 -0.0776,0.0932 -0.079,0.0948 0,0 -0.015,0.046 -0.0158,0.0473 -0.0413,0.048 -0.88537,1.24595 -1.51688,2.1173 -0.35624,-3.73192 0.82839,-7.62818 2.33851,-10.74451 1.72333,-3.55632 3.68158,-6.0359 3.68158,-6.0359 0.98904,-1.53277 1.23169,-2.48784 0.86904,-3.49197 -3.1832,5.9991 -9.95252,8.66435 -16.02198,9.79647 -4.36257,0.81375 -8.27069,0.81645 -10.14408,0.75844 1.37541,-0.7839 2.63129,-1.54212 3.74478,-2.27531 2.23752,-1.47331 3.92428,-2.80765 5.00884,-3.99759 1.19217,-1.16097 1.16095,-2.58622 0.0474,-2.79674 0.0598,0.11322 0.0758,0.27609 -0.0632,0.61623 -0.13901,0.34015 -0.436,0.80014 -0.91644,1.32727 -0.9609,1.05426 -2.58686,2.36926 -4.77184,3.80799 -4.36997,2.87744 -10.98824,6.27725 -19.13473,9.55946 -6.78741,2.73464 -14.65369,5.37227 -23.19552,7.56856 -7.84062,-0.74362 -21.24914,2.96483 -30.685084,0.47403 -3.268438,-0.53597 -5.989834,-2.93909 -8.026789,-3.12856 0,0 0.526963,0.74045 1.722281,1.61168 1.195324,0.87124 3.095067,1.93238 5.972692,2.73354 5.58621,1.55525 14.83997,2.14245 29.68964,-1.34307 -5.97319,1.48991 -12.27319,2.75314 -18.75551,3.66578 -6.07769,1.56577 -14.476136,-2.39834 -20.493596,-2.08571 0,0 3.109255,1.13502 7.220951,2.05411 1.714898,0.38333 3.603951,0.73122 5.530265,0.94804 -3.123141,0.7557 -8.940112,1.06549 -10.981531,1.89609 4.855471,-0.10268 9.678297,-0.44172 14.410301,-0.97965 -0.62278,0.3598 -1.28477,0.7315 -1.95929,1.13766 -2.792958,1.59944 -5.317633,3.63275 -6.209704,6.08329 0.337854,-0.48264 1.347701,-1.34916 2.607123,-2.2437 1.259431,-0.89455 2.774251,-1.86047 4.250401,-2.74934 2.01396,-1.2127 3.56945,-2.08392 4.58223,-2.63873 0.43398,-0.0579 0.86335,-0.12858 1.29566,-0.1896 -0.25177,0.69032 -0.57213,1.76124 -0.83744,3.27075 -0.47455,2.70005 -0.73052,6.70451 0.11061,11.94538 0.82231,5.12365 0.67191,8.04936 0.158,9.59107 -0.25695,0.77085 -0.58703,1.19081 -0.91644,1.43787 -0.32941,0.24706 -0.6784,0.33702 -1.07446,0.36341 -0.61724,0.0412 -1.55582,-0.38742 -2.25951,-2.1173 -1.56963,-3.82679 -0.13659,-7.94482 -1.78548,-9.44885 -0.056,0.45393 -0.0876,0.88607 -0.12641,1.31146 -1.20213,-0.98381 -3.255633,-2.39445 -5.672468,-2.92315 -0.483369,-0.10573 -0.990182,-0.16922 -1.501077,-0.1896 -1.532682,-0.0612 -3.157101,0.30038 -4.692826,1.39047 -2.047634,1.45345 -3.917104,4.13676 -5.388065,8.59561 l -0.03161,0.0948 0,0.1106 c 0.09307,4.56005 1.666044,7.82071 3.950196,10.03349 2.06924,2.00458 4.682944,3.14847 7.29995,3.76058 -1.29969,1.49337 -2.795011,3.39272 -4.234602,5.68827 C 86.254927,357.04386 82.536632,350.8914 80.302844,345.16923 78.003071,339.27802 77.2849,333.9507 77.2849,333.9507 c -0.811033,0.3381 -1.175806,0.72396 -1.84869,1.53267 -0.07325,-0.53053 -0.118371,-1.0187 -0.237008,-1.62748 -0.400731,-2.05627 -1.040451,-4.57042 -1.627479,-7.45796 -1.174054,-5.7751 -2.14253,-13.05383 -0.632031,-21.10983 1.487756,-7.93467 7.417225,-14.3044 14.094283,-19.02412 6.677053,-4.71971 14.066645,-7.76437 18.281485,-9.08544 4.43015,-1.38855 12.14869,-5.60909 18.88192,-9.55946 3.36661,-1.97519 6.48613,-3.87804 8.76942,-5.32486 0.8601,-0.44155 1.92695,-1.63601 2.0225,-2.82834 -0.64761,0.43626 -1.56711,1.03481 -2.70193,1.75389 -2.26963,1.43816 -5.36898,3.34183 -8.72202,5.30905 -1.37734,0.80808 -2.80644,1.62889 -4.23461,2.43333 1.50388,-1.90529 4.27084,-4.99536 8.61142,-8.31121 7.08822,-5.41483 18.30582,-11.36964 34.85649,-13.46225 2.58059,-0.32628 5.02978,-0.49448 7.34736,-0.52143 z m 60.99096,2.29111 c -0.48696,2.8e-4 -0.97224,0.0588 -1.45367,0.17381 -2.56759,0.61342 -4.99961,2.65489 -6.63632,4.99304 -0.90349,1.2907 -0.90975,2.77697 -0.36342,4.124 0.54633,1.34703 1.58159,2.62289 2.78093,3.87119 2.39869,2.49658 5.52649,4.88802 6.92074,6.66792 0.9615,-1.15033 1.07469,-2.3774 1.9751,-3.41297 0.93948,-1.06853 2.45133,-2.20593 4.02919,-3.38136 1.57787,-1.17543 3.23137,-2.38992 4.50322,-3.68158 1.27185,-1.29166 2.21386,-2.71086 2.1173,-4.31361 -0.0898,-1.49056 -0.83839,-2.49718 -1.84869,-2.89154 -1.01029,-0.39435 -2.17412,-0.28988 -3.27076,-0.0316 -1.74296,0.41051 -3.10354,1.11332 -3.71317,1.43787 -0.73323,-1.39589 -1.62146,-2.4366 -2.67033,-2.98634 -0.60244,-0.31575 -1.23462,-0.4946 -1.88029,-0.55303 -0.16143,-0.0146 -0.32751,-0.0159 -0.48983,-0.0158 z m -0.0158,1.24826 c 0.12555,-0.001 0.25626,0.005 0.37922,0.0158 0.49181,0.0438 0.97006,0.18972 1.42207,0.42662 0.90399,0.47381 1.7567,1.3735 2.44911,2.93895 l 0.28442,0.63203 0.60042,-0.33182 c 0,0 1.99371,-1.123 3.9344,-1.58008 0.97034,-0.22853 1.89673,-0.26572 2.49652,-0.0316 0.59979,0.23412 0.98883,0.64229 1.05865,1.80129 0.0631,1.04681 -0.59166,2.16943 -1.75389,3.34976 -1.16222,1.18033 -2.77855,2.37633 -4.36101,3.55518 -1.58245,1.17884 -3.1392,2.32728 -4.2188,3.55517 -0.5398,0.61394 -0.95917,1.25212 -1.18506,1.94349 -0.0349,0.1067 -0.0237,0.22226 -0.0473,0.33182 -1.69565,-1.74943 -3.92915,-3.61582 -5.79888,-5.56187 -1.14695,-1.19377 -2.07306,-2.40892 -2.51232,-3.49197 -0.43927,-1.08306 -0.4553,-1.96348 0.20541,-2.90734 1.49168,-2.13098 3.78465,-3.98356 5.89368,-4.48742 0.39544,-0.0945 0.7768,-0.1537 1.15346,-0.15801 z m -41.2558,43.3573 c -0.40092,0.69883 -0.81615,1.46461 -1.21666,2.29111 -1.78814,3.69007 -3.36585,8.52722 -2.29111,13.16204 l 0.34762,1.45367 0.80583,-1.24826 c 0.15584,-0.23976 0.0954,-0.11954 0.23702,-0.33182 -0.34152,2.26369 -0.1648,5.21321 1.91189,8.02679 l 0.69523,0.94805 0.41082,-1.10606 c 0.88983,-2.41525 1.84147,-4.7886 2.85994,-6.4151 0.18872,-0.30139 0.3771,-0.56149 0.56883,-0.80585 0.0719,1.7031 0.24913,5.36813 0.66363,10.1915 0.2642,3.07426 0.60534,6.2819 1.05865,9.03803 0.45331,2.75614 0.97846,5.02262 1.75389,6.35192 l 0.17381,0.28441 0.33181,0.0316 c 0.53254,0.0296 0.88027,0.093 1.15346,0.15801 0.27318,0.065 0.47705,0.16035 0.82164,0.14221 0.34458,-0.0182 0.68746,-0.27142 0.88484,-0.53722 0.15884,-0.21391 0.32042,-0.49564 0.52143,-0.85325 l 0.0948,0.0474 c 0,0 1.17759,-2.61803 3.57097,-4.23461 2.38136,-1.60845 5.8806,-2.33817 11.10794,1.54848 2.97193,3.24745 3.33129,7.3368 1.70648,10.64971 -2.90712,5.55848 -7.84169,5.77959 -10.4601,6.2255 -1.797,-0.79684 -2.72326,-1.13307 -3.68158,-0.50562 0,0 6.17318,2.66003 11.92958,8.2164 5.7564,5.55637 11.03566,13.91771 9.35405,25.42343 -1.95291,13.36204 -8.82794,23.29582 -18.81871,30.8747 -9.99077,7.57887 -23.10802,12.75906 -37.41622,16.44859 -28.39438,7.32182 -62.10981,-6.49263 -76.207085,-28.22017 -8.215207,-15.09097 -6.143639,-27.51224 -2.054102,-36.24695 4.089536,-8.73471 10.207297,-13.69927 10.207297,-13.69927 -1.470734,-0.41989 -2.927066,1.01369 -3.634181,1.76969 -2.685196,-0.5327 -5.368741,-1.62407 -7.394757,-3.58677 -2.030616,-1.96717 -3.428104,-4.8316 -3.53937,-9.05384 1.410897,-4.2214 3.138998,-6.61087 4.866639,-7.83718 1.744547,-1.23832 3.520317,-1.37835 5.198449,-1.01125 2.740709,0.59953 5.03227,2.54898 5.81468,3.27076 -0.1451,3.16151 0.22331,5.44392 0.86904,7.03134 0.8286,2.03696 2.20967,2.99388 3.50777,2.90734 0.56162,-0.0374 1.18948,-0.19292 1.75389,-0.61623 0.56441,-0.42331 1.04121,-1.08535 1.35886,-2.0383 0.63531,-1.90591 0.72705,-4.98808 -0.1106,-10.2073 -0.81884,-5.10196 -0.5618,-8.95161 -0.11061,-11.51875 0.4055,-2.30716 0.92093,-3.47329 1.02705,-3.69738 15.85307,-2.37316 30.49023,-6.77765 42.06164,-11.43976 0.007,0.0198 13.55549,-6.06978 14.31552,-6.1939 0,0 5.40838,0.42365 11.66096,-0.74263 3.77628,-0.70438 7.89123,-2.00115 11.32915,-4.34521 z m -75.02201,15.12133 c -3.76972,-0.0238 -7.1532,-0.31744 -9.63847,-0.61623 -2.47375,-0.0443 -3.28928,-0.0923 -4.66122,0.48983 0.19191,0.0822 0.30317,0.10722 0.53722,0.15801 0.23405,0.0508 0.53787,0.10796 0.91645,0.1738 0.75714,0.13169 1.80208,0.29055 3.06535,0.44243 2.52654,0.30374 5.93706,0.5921 9.76487,0.61622 7.65561,0.0482 16.94928,-0.93425 23.95396,-4.99304 -7.88517,2.64282 -16.84377,3.73358 -23.93816,3.72898 z m 46.18564,-4.56642 c -0.10298,0.005 -0.19851,0.0145 -0.30022,0.0316 -0.40684,0.0686 -0.79119,0.23496 -1.13766,0.47402 -1.38584,0.95624 -2.27027,2.99525 -1.97509,5.34066 0.1678,1.33326 0.7376,2.75612 1.83289,4.124 -1.48864,0.45974 -4.43588,1.78936 -5.43546,5.29326 l 0,0.0316 -0.0158,0.0316 c 0,0 -0.4226,2.30001 -0.58462,5.54607 -1.2438,-3.41293 -2.85762,-5.67261 -2.89155,-5.71988 -3.6e-4,-5e-4 -0.0158,-0.0473 -0.0158,-0.0473 l -0.0158,0.0158 c -1.7384,-2.84576 -4.48561,-4.45666 -5.45127,-4.96145 0.23697,-0.38862 0.45514,-0.78514 0.63203,-1.20086 l 0.0632,-0.1422 -0.0158,-0.14221 c -0.0499,-0.89934 -0.27526,-1.6622 -0.69523,-2.24371 -0.41997,-0.5815 -1.0339,-0.96556 -1.72228,-1.10605 -0.3442,-0.0702 -0.70277,-0.0769 -1.07446,-0.0474 -1.11505,0.0884 -2.33878,0.60061 -3.61837,1.45368 -1.74209,1.16138 -4.33836,3.67352 -7.28415,6.3045 -2.9458,2.63097 -6.2108,5.36086 -9.08545,6.84173 l 0.39503,1.18506 c 0,0 3.24752,-0.56612 7.31575,-1.81709 -0.99377,2.10512 -2.80089,6.38819 -3.41297,10.93413 -0.42892,3.18565 -0.28023,6.50234 1.26407,9.25925 1.36034,2.42853 3.81316,4.35169 7.67917,5.24586 -4.42102,2.73235 -8.64034,7.5822 -9.60687,15.95877 -1.10614,9.58655 2.65295,16.83083 8.50081,21.61545 5.84787,4.78461 13.73347,7.16057 20.99922,7.25255 7.38495,0.0935 13.01809,-4.25007 16.76461,-8.54822 3.5592,-4.08325 5.34723,-7.94235 5.53027,-8.3428 0.39603,-0.0897 1.48747,-0.37353 2.55972,-1.29567 2.01874,-1.92986 2.06022,-4.53852 -0.31601,-5.65667 0.59171,1.31022 0.67534,2.28337 0.52143,3.01795 -0.15392,0.73457 -0.55758,1.25754 -1.04286,1.67488 -0.97054,0.83467 -2.2753,1.10605 -2.2753,1.10605 l -0.31602,0.0632 -0.14221,0.30021 c 0,0 -1.85494,4.16723 -5.46706,8.3112 -3.61213,4.14397 -8.91989,8.1929 -15.80077,8.1058 -7.00008,-0.0886 -14.63534,-2.40774 -20.20918,-6.96814 -5.57383,-4.56041 -9.11921,-11.29981 -8.05839,-20.4936 1.05991,-9.18585 6.05652,-13.69639 10.83933,-16.02198 4.7828,-2.32558 9.30665,-2.38591 9.30665,-2.38591 l 0.22121,0 0.158,-0.12641 c 3.98618,-3.1264 5.97864,-6.68064 6.76273,-10.14408 0.41715,1.47558 0.99476,2.89164 1.75389,4.18719 1.56667,2.67374 4.00015,4.79325 7.55277,5.56188 l 0.1106,0.0316 0.1264,-0.0158 c 5.1249,-0.84368 8.51161,-2.9071 10.63392,-5.54607 2.12231,-2.63897 2.96735,-5.81036 3.16015,-8.83263 0.29725,-4.65938 -0.92112,-8.95593 -1.50107,-10.71291 1.11791,0.12311 2.29548,0.22844 3.53937,0.30021 0.0459,0.002 0.0804,0.0133 0.12641,0.0158 l 0.18961,-1.23246 c -0.0454,-0.0119 -0.0813,-0.0196 -0.12641,-0.0316 -11.43667,-3.03448 -14.31828,-9.32469 -16.05358,-13.50965 -0.4688,-1.1306 -1.14917,-1.87408 -1.95929,-2.18051 -0.3038,-0.11491 -0.62334,-0.15666 -0.93225,-0.1422 z m 0.20541,1.24826 c 0.0968,0.0111 0.18742,0.0423 0.28441,0.079 0.38798,0.14675 0.85062,0.56439 1.23246,1.48527 1.48815,3.58891 4.1629,9.01844 12.07179,12.5142 -5.15282,-0.72221 -8.80851,-1.99822 -11.26595,-3.49196 -3.21182,-1.95229 -4.44983,-4.21572 -4.69283,-6.1465 -0.243,-1.93078 0.56913,-3.54037 1.43787,-4.1398 0.21719,-0.14986 0.43138,-0.24893 0.63203,-0.28442 0.10033,-0.0177 0.20339,-0.0268 0.30022,-0.0158 z m 84.6605,1.54848 c -0.34419,0.009 -0.68064,0.0592 -0.99545,0.1422 -0.83947,0.22121 -1.57473,0.63171 -2.1015,0.99545 -0.21054,0.14538 -0.35004,0.27502 -0.48983,0.39502 -0.46642,-0.41799 -0.99638,-0.71745 -1.56427,-0.83744 -1.30979,-0.27673 -2.66884,0.17505 -3.80799,0.96385 -1.13914,0.7888 -2.07489,1.93987 -2.44911,3.25495 -0.37423,1.31509 -0.12135,2.83159 1.07445,4.0134 1.16917,1.15549 3.19357,2.98695 5.38806,6.99974 1.10695,-1.74134 0.45433,-3.58855 1.40627,-5.30906 0.578,-1.00233 1.5464,-1.6193 2.65453,-2.1331 1.10812,-0.5138 2.3183,-0.87981 3.27076,-1.54847 0.47622,-0.33434 0.89836,-0.77554 1.13766,-1.34307 0.23929,-0.56753 0.28438,-1.24091 0.1106,-1.9909 -0.37333,-1.61122 -1.05357,-2.62745 -1.9277,-3.16015 -0.43706,-0.26635 -0.89785,-0.40802 -1.35886,-0.44242 -0.11525,-0.009 -0.23289,-0.003 -0.34762,0 z m 0.23701,1.26406 c 0.28828,0.0198 0.56868,0.0987 0.82164,0.25281 0.50592,0.30832 1.01733,0.96431 1.34307,2.37011 0.12949,0.55883 0.0756,0.92479 -0.0474,1.21666 -0.12307,0.29188 -0.34448,0.54379 -0.69524,0.79004 -0.70153,0.49251 -1.86708,0.89807 -3.06535,1.45368 -1.19827,0.55559 -2.45064,1.29874 -3.22335,2.63872 -0.44352,0.76911 -0.68558,1.74103 -0.71104,2.89154 -1.70218,-2.53829 -3.2155,-3.98419 -4.0924,-4.85084 -0.9002,-0.88966 -1.03068,-1.80839 -0.75844,-2.76513 0.27225,-0.95673 1.01838,-1.91912 1.9435,-2.55972 0.92511,-0.6406 1.99658,-0.93751 2.84413,-0.75844 0.84757,0.17908 1.5714,0.75777 1.9909,2.29111 0.8527,-0.94342 0.14629,-2.14257 2.74933,-2.87574 0.31489,-0.083 0.61237,-0.11462 0.90065,-0.0948 z m -103.81103,2.48072 c 0.26958,-0.0256 0.518,-0.011 0.72684,0.0316 0.41766,0.0852 0.70777,0.26774 0.94804,0.60043 0.22332,0.3092 0.37129,0.80737 0.42663,1.45367 -1.74898,3.81611 -7.12905,6.70881 -12.1824,8.53241 -2.34618,0.84667 -4.50084,1.41635 -6.2571,1.84869 2.10389,-1.48661 4.22549,-3.2666 6.1939,-5.02464 2.96821,-2.651 5.61778,-5.18833 7.12614,-6.19391 1.15824,-0.77215 2.20921,-1.17134 3.01795,-1.24825 z m 18.09188,4.47161 c 0.68986,0.66651 1.50867,1.31144 2.49652,1.9119 2.69172,1.63615 6.55324,2.95513 11.96118,3.68158 0.24455,0.66352 1.94984,5.50689 1.61168,10.80772 -0.18153,2.84544 -0.96164,5.74151 -2.87574,8.12159 -1.89378,2.35482 -4.91765,4.23674 -9.71748,5.05625 -3.14817,-0.71038 -5.22226,-2.51655 -6.63631,-4.92984 -1.4294,-2.43946 -2.14712,-5.49812 -2.44912,-8.48501 -0.59859,-5.9201 0.40804,-11.4659 0.42661,-11.56616 0.004,-0.012 0.0123,-0.0196 0.0158,-0.0316 4e-5,-2.1e-4 0,-0.0316 0,-0.0316 1.09225,-3.68802 4.67867,-4.44765 5.16686,-4.53483 z m -16.10098,0.18961 c 0.62454,0.31598 3.48117,1.86329 5.13525,4.59803 l 0.0158,0.0158 0.0158,0.0316 c 0,0 2.68249,3.77021 3.69738,8.83263 1.00785,5.02722 0.41865,11.21112 -6.1781,16.46439 -0.37682,0.007 -4.74447,0.12413 -9.59106,2.48073 -0.0628,0.0305 -0.12671,0.0635 -0.18961,0.0948 -4.4937,-0.66298 -6.97303,-2.5093 -8.3112,-4.89824 -1.3477,-2.40595 -1.52953,-5.45722 -1.12185,-8.48501 0.76761,-5.70114 3.51167,-11.0069 3.83958,-11.62937 0.34748,-0.11778 0.6898,-0.23601 1.04285,-0.36341 4.33428,-1.56411 9.03569,-3.82652 11.64517,-7.14195 z m -88.026091,8.54822 c -0.158361,0.002 -0.324025,0.004 -0.489824,0.0158 -2.290327,0.1636 -3.832639,0.8772 -4.787632,1.91189 -0.954988,1.03469 -1.27479,2.34139 -1.279862,3.55518 -0.003,0.76886 0.128055,1.48521 0.284414,2.1489 -2.891398,-1.8698 -6.815034,-1.2106 -8.690421,1.67488 -1.037117,1.59572 -1.29944,3.42752 -0.853242,5.19845 0.446204,1.77094 1.589097,3.47821 3.318161,4.94564 3.458128,2.93486 9.280773,4.95403 17.001624,4.62963 l 1.358866,-0.0632 -0.916444,-0.99545 c -0.811887,-0.88683 -1.089859,-2.76891 -0.979648,-5.11945 0.110211,-2.35055 0.54392,-5.12286 0.805839,-7.75818 0.261918,-2.63531 0.377054,-5.12602 -0.284413,-7.06294 -0.330735,-0.96846 -0.883003,-1.81935 -1.722284,-2.37011 -0.734369,-0.48192 -1.656593,-0.72119 -2.765134,-0.71104 z m 0.395019,1.26406 c 0.720429,0.0398 1.252589,0.22849 1.674881,0.50562 0.563059,0.36951 0.949846,0.9252 1.216659,1.70649 0.533626,1.56257 0.493834,3.95752 0.237011,6.54151 -0.256816,2.58399 -0.706397,5.36362 -0.821639,7.82139 -0.08876,1.89306 0.002,3.61783 0.61623,4.94563 -6.873839,0.0695 -12.040381,-1.77692 -15.010728,-4.29781 -1.569311,-1.33185 -2.539316,-2.82136 -2.907341,-4.282 -0.368018,-1.46064 -0.14483,-2.88616 0.711035,-4.20301 1.861062,-2.86344 6.255081,-3.0999 8.516612,0.20541 0.841196,-1.07169 0.103313,-2.99095 0.079,-4.72442 0.0041,-1.00663 0.242215,-1.95432 0.932246,-2.70193 0.690035,-0.74763 1.888148,-1.35267 3.965992,-1.50108 0.282912,-0.0202 0.549897,-0.0291 0.790042,-0.0158 z m 107.223992,1.75388 c -4.05456,0 -7.41056,2.98644 -7.41056,6.73113 0,3.74469 3.356,6.71533 7.41056,6.71533 4.05457,0 7.42636,-2.97064 7.42636,-6.71533 0,-3.74469 -3.37179,-6.73113 -7.42636,-6.73113 z m 0,1.26407 c 3.44138,0 6.1781,2.48346 6.1781,5.46706 0,2.9836 -2.73672,5.45127 -6.1781,5.45127 -3.44137,0 -6.14649,-2.46767 -6.14649,-5.45127 0,-2.9836 2.70512,-5.46706 6.14649,-5.46706 z m -19.76676,0.26861 c -4.05456,0 -7.41055,2.98643 -7.41055,6.73113 0,3.74468 3.35599,6.71532 7.41055,6.71532 4.05457,0 7.42636,-2.97064 7.42636,-6.71532 0,-3.7447 -3.37179,-6.73113 -7.42636,-6.73113 z m 0,1.26406 c 3.44139,0 6.16231,2.48347 6.16231,5.46707 0,2.98359 -2.72092,5.45126 -6.16231,5.45126 -3.44137,0 -6.1465,-2.46767 -6.1465,-5.45126 0,-2.9836 2.70513,-5.46707 6.1465,-5.46707 z m 62.76064,3.87119 c 0,0 -1.7449,2.16043 -2.29111,4.51902 -0.27309,1.17929 -0.2294,2.50455 0.63203,3.52357 0.86144,1.01901 2.4067,1.61208 4.85084,1.65908 l 0.0474,0 0.0632,-0.0158 c 1.01548,-0.15233 1.73823,-0.54338 2.1015,-1.16926 0.36328,-0.62588 0.26259,-1.36775 -0.0474,-1.9435 -0.62003,-1.15148 -2.08486,-2.01546 -3.60258,-1.54847 0.88452,1.03141 1.83001,0.99864 2.49652,2.14891 0.16401,0.30458 0.16831,0.52994 0.0632,0.71103 -0.10305,0.17754 -0.41277,0.4157 -1.16926,0.53722 -2.19594,-0.0548 -3.31933,-0.58543 -3.83959,-1.20086 -0.52677,-0.62313 -0.58691,-1.45241 -0.36341,-2.41751 0.30768,-2.22252 1.43711,-3.01399 1.05865,-4.80343 z m -113.386288,2.87574 c 0.21269,1.44675 2.308837,2.50491 3.460366,3.22335 0.952425,0.60211 1.867169,1.30245 2.449119,1.9751 0.581953,0.67265 0.790543,1.22127 0.647833,1.70648 l -0.0158,0.0158 0,0.0158 c -1.103389,3.16525 -2.812467,0.10293 -3.792188,-0.86904 -0.248112,1.36463 0.620627,2.64562 1.76969,3.17596 0.574527,0.26517 1.288281,0.32287 1.911891,-0.0158 0.618727,-0.33599 1.072117,-1.00618 1.327267,-1.95929 0.001,-0.004 -0.004,-0.0137 0,-0.0158 0.29919,-1.04413 -0.18267,-2.06166 -0.90065,-2.89154 -0.721602,-0.83406 -1.706341,-1.57272 -2.717727,-2.2121 -2.02278,-1.27877 -4.139801,-2.14891 -4.139801,-2.14892 z m 140.279198,1.43786 c -1.17902,-0.006 -2.24101,0.48935 -3.00215,1.29567 -2.02968,2.15017 -2.03026,6.39066 1.80129,8.99063 1.76352,1.19668 2.58645,1.91729 3.23916,2.90735 0.6527,0.99006 1.15539,2.33747 2.1489,4.67702 1.19234,-0.86896 1.59871,-3.03002 2.89154,-4.2504 1.03559,-0.95475 2.47923,-1.6308 3.91859,-2.24371 1.43936,-0.61291 2.86287,-1.13849 3.90279,-1.9593 0.51997,-0.4104 0.94188,-0.91389 1.15346,-1.54847 0.21159,-0.63458 0.19491,-1.37282 -0.079,-2.1489 l -0.0158,-0.0316 -0.0158,-0.0316 c -0.70841,-1.4168 -1.8272,-2.24649 -3.01796,-2.60712 -1.19074,-0.36063 -2.44465,-0.29163 -3.58677,-0.0632 -1.79146,0.35828 -3.0623,0.98251 -3.64997,1.29566 -1.41679,-2.32216 -2.94845,-3.65135 -4.47162,-4.1082 -0.41015,-0.12302 -0.82365,-0.17187 -1.21666,-0.17381 z m -0.0158,1.24827 c 0.274,0.003 0.56743,0.0517 0.86905,0.14221 1.20648,0.36186 2.6748,1.53368 4.0766,4.02919 l 0.31601,0.55303 0.55303,-0.33182 c 0,0 1.76691,-1.01701 3.79218,-1.42207 1.01264,-0.20252 2.06638,-0.24223 2.97054,0.0316 0.8919,0.27012 1.64599,0.82174 2.21212,1.92769 0.19017,0.55838 0.20473,0.95016 0.0948,1.27987 -0.11262,0.33779 -0.36462,0.653 -0.75844,0.96384 -0.78763,0.62168 -2.1528,1.16141 -3.61838,1.78549 -1.46557,0.62407 -3.04313,1.33856 -4.282,2.48072 -0.76266,0.70312 -1.33239,1.62053 -1.69068,2.70193 -0.48804,-1.15107 -0.91924,-2.12881 -1.42207,-2.89154 -0.76784,-1.1647 -1.77499,-2.02553 -3.58678,-3.25496 -3.31907,-2.25222 -3.06168,-5.52592 -1.59588,-7.07874 0.36646,-0.38821 0.80431,-0.66313 1.29567,-0.80584 0.24568,-0.0714 0.50024,-0.11373 0.77423,-0.1106 z m -41.66661,3.83958 c -1.71308,0.90692 -4.24525,3.21418 -6.44672,5.32486 -2.20145,2.11068 -4.01339,4.01339 -4.01339,4.01339 2.82519,-1.19995 9.52938,-7.22225 10.46011,-9.33825 z m 0.86904,2.37012 c 0,0 -6.49117,3.99624 -8.2164,9.93868 1.85372,-3.15518 8.51202,-7.72734 8.2164,-9.93868 z m 1.21666,3.64997 c 0,0 -2.1223,1.56047 -4.20301,3.91859 -2.08069,2.35813 -4.19557,5.53008 -3.99759,8.89584 1.90503,-5.75717 7.95675,-10.61144 8.2006,-12.81443 z m -72.84153,0.41083 c -2.32324,0.30302 -5.54068,2.01776 -8.2954,3.63417 -2.75472,1.61641 -4.97724,3.16015 -4.97724,3.16015 3.2108,-0.82992 10.32289,-4.93051 13.27264,-6.79432 z m -9.54366,8.05839 c 0,0 0.66138,-0.36801 1.64328,-0.88485 1.95109,1.17866 6.93199,-1.21483 9.92288,-3.38136 -1.47527,0.10538 -3.86693,0.94226 -6.00429,1.73808 -1.19984,0.44675 -2.19113,0.83926 -2.92314,1.13766 0.62411,-0.32184 1.29294,-0.66879 2.02249,-1.02705 2.51491,-1.235 5.48323,-2.53411 6.71533,-2.76514 -1.93094,-1.61231 -11.77636,3.83724 -11.37655,5.18266 z m 3.46036,18.15507 c -5.40798,1.83322 -8.21726,4.01731 -9.68587,5.79888 -0.73429,0.8908 -1.13579,1.67914 -1.34306,2.25951 -0.20727,0.58038 -0.23701,1.01125 -0.23701,1.01125 1.89056,-1.2239 2.45667,-2.60361 3.98179,-3.88701 -0.18172,1.97443 -0.24032,5.66622 1.26406,9.13284 1.08832,2.50788 3.03491,4.88688 6.30451,6.27291 3.17033,1.34394 7.58671,1.72855 13.60446,0.58462 2.14323,5.42096 4.88369,11.74582 10.3337,15.67437 6.50854,5.71106 24.75241,3.71807 26.68749,-0.53723 -12.88613,4.65332 -20.73023,3.28045 -25.96066,-0.48983 -5.23042,-3.77027 -7.90222,-10.08225 -10.06508,-15.57955 l -0.18961,-0.48982 -0.52143,0.0948 c -6.14715,1.24725 -10.43863,0.82834 -13.39904,-0.42662 -2.96043,-1.25496 -4.63673,-3.33177 -5.62508,-5.60927 -1.89048,-4.35633 -1.08594,-9.24105 -1.01125,-9.67007 2.47531,-1.96315 4.23789,-2.39351 5.86208,-4.1398 z"
         id="path2997"
         style="font-size:medium;font-style:normal;font-variant:normal;font-weight:normal;font-stretch:normal;text-indent:0;text-align:start;text-decoration:none;line-height:normal;letter-spacing:normal;word-spacing:normal;text-transform:none;direction:ltr;block-progression:tb;writing-mode:lr-tb;text-anchor:start;baseline-shift:baseline;color:#000000;fill:#000000;fill-opacity:1;stroke:none;stroke-width:2.5;marker:none;visibility:visible;display:inline;overflow:visible;enable-background:accumulate;font-family:Sans;-inkscape-font-specification:Sans"
         inkscape:connector-curvature="0" />
      <path
         d="m 146.9772,133.60893 a 1.2311234,1.1048543 0 1 1 -2.46224,0 1.2311234,1.1048543 0 1 1 2.46224,0 z"
         transform="translate(0,200)"
         id="path3025"
         style="fill:#bd995b;fill-opacity:1;stroke:none"
         inkscape:connector-curvature="0" />
      <path
         d="m 146.9772,133.60893 a 1.2311234,1.1048543 0 1 1 -2.46224,0 1.2311234,1.1048543 0 1 1 2.46224,0 z"
         transform="translate(19.824244,198.1691)"
         id="path3027"
         style="fill:#bd995b;fill-opacity:1;stroke:none"
         inkscape:connector-curvature="0" />
      <path
         d="m 138.89598,159.46252 a 0.75761443,7.7024131 0 0 1 -0.004,0.83531 l -0.75314,-0.83531 z"
         transform="translate(0,200)"
         id="path3049"
         style="fill:#fed893;fill-opacity:1;stroke:none"
         inkscape:connector-curvature="0" />
      <path
         d="m 140.91629,160.85149 a 2.77792,6.0609166 0 1 1 -5.55584,0 2.77792,6.0609166 0 1 1 5.55584,0 z"
         transform="matrix(0.94260422,0.15051348,-0.12483062,0.78176303,24.598485,219.86789)"
         id="path3053"
         style="fill:#fed893;fill-opacity:1;stroke:none"
         inkscape:connector-curvature="0" />
      <path
         d="m 140.91629,160.85149 a 2.77792,6.0609166 0 1 1 -5.55584,0 2.77792,6.0609166 0 1 1 5.55584,0 z"
         transform="matrix(2.8131832,0.15051348,-0.37255446,0.78176303,-123.09726,217.84759)"
         id="path3055"
         style="fill:#fed893;fill-opacity:1;stroke:none"
         inkscape:connector-curvature="0" />
      <path
         d="m 140.91629,160.85149 a 2.77792,6.0609166 0 1 1 -5.55584,0 2.77792,6.0609166 0 1 1 5.55584,0 z"
         transform="matrix(2.8131832,0.15051348,-0.37255446,0.78176303,-223.85998,219.36282)"
         id="path3057"
         style="fill:#fed893;fill-opacity:1;stroke:none"
         inkscape:connector-curvature="0" />
      <path
         d="m 49.19643,134.28572 a 1.5625,1.3392857 0 1 1 -3.125,0 1.5625,1.3392857 0 1 1 3.125,0 z"
         transform="matrix(1.0571429,0,0,0.63333334,-3.614796,248.74703)"
         id="path3063"
         style="fill:#f5aa95;fill-opacity:1;stroke:none"
         inkscape:connector-curvature="0" />
      <path
         d="m 49.19643,134.28572 a 1.5625,1.3392857 0 1 1 -3.125,0 1.5625,1.3392857 0 1 1 3.125,0 z"
         transform="matrix(1.0571429,0,0,0.63333334,52.635203,161.78275)"
         id="path3018"
         style="fill:#f5aa95;fill-opacity:1;stroke:none"
         inkscape:connector-curvature="0" />
      <path
         d="m 49.19643,134.28572 a 1.5625,1.3392857 0 1 1 -3.125,0 1.5625,1.3392857 0 1 1 3.125,0 z"
         transform="matrix(1.0571429,0,0,0.63333334,181.02806,168.21132)"
         id="path3022"
         style="fill:#f5aa95;fill-opacity:1;stroke:none"
         inkscape:connector-curvature="0" />
      <path
         d="m 49.19643,134.28572 a 1.5625,1.3392857 0 1 1 -3.125,0 1.5625,1.3392857 0 1 1 3.125,0 z"
         transform="matrix(0.60487262,-0.55984855,0.35205259,0.34524249,163.75154,291.3176)"
         id="path3026"
         style="fill:#f5aa95;fill-opacity:1;stroke:none"
         inkscape:connector-curvature="0" />
      <path
         d="m 49.19643,134.28572 a 1.5625,1.3392857 0 1 1 -3.125,0 1.5625,1.3392857 0 1 1 3.125,0 z"
         transform="matrix(0.60487262,-0.55984855,0.35205259,0.34524249,158.21583,321.67474)"
         id="path3028"
         style="fill:#f5aa95;fill-opacity:1;stroke:none"
         inkscape:connector-curvature="0" />
      <path
         d="m 74.285714,217.85714 c 0,0 72.857146,96.78572 168.214286,-0.35714 -40.35714,18.57143 -83.21429,67.85714 -168.214286,0.35714 z"
         transform="translate(0,200)"
         id="path3038"
         style="fill:#9cc336;stroke:none"
         inkscape:connector-curvature="0" />
    </g>
  </g>
  <animateTransform attributeName="transform"
                          attributeType="XML"
                          type="rotate"
                          from="0 0 0"
                          to="360 0 0"
                          dur="12s"
						  repeatCount="indefinite"/>
</svg>
